<svg width="592" height="532" viewBox="0 0 592 532" fill="none" xmlns="http://www.w3.org/2000/svg">
<g id="Group 15">
<g id="Vector 23">
<path d="M281.646 179.452C283.274 178.402 284.825 173.682 285.5 170.966C291.333 170.798 298.5 173.48 302.5 173.48C304.5 173.48 306.833 179.681 309.5 182.028L294 183.034C290.322 181.878 284.345 180.068 281.646 179.452C281.265 179.698 280.879 179.743 280.5 179.514C279.879 179.139 280.431 179.175 281.646 179.452Z" fill="white"/>
<path d="M285.5 170.966C284.667 174.318 282.5 180.721 280.5 179.514C278.5 178.307 288.667 181.358 294 183.034L309.5 182.028C306.833 179.681 304.5 173.48 302.5 173.48C298.5 173.48 291.333 170.798 285.5 170.966Z" stroke="black" stroke-linecap="round"/>
</g>
<path id="Vector 6" d="M285 170.463C284.667 173.312 283.4 178.207 279 179.011" stroke="black" stroke-width="2"/>
<path id="Vector 7" d="M304 172.977C305.286 176.498 309.886 183.38 314 182.028" stroke="black" stroke-width="2"/>
<g id="hand_right">
<g id="Group 3">
<path id="Vector 12" d="M364.502 212.5C374.502 209 368.089 166.489 365.502 149.5L365.002 145.5L350.002 146.5L351.002 149.5C352.002 156.833 353.502 171.369 353.502 172.5C353.502 173.5 353.002 185.833 351.502 192L349.502 196L335.502 194.5C335.002 198.333 343.202 205.3 346.002 210.5C348.802 215.7 361.669 213.333 364.502 212.5Z" fill="white" stroke="black" stroke-width="2" stroke-linecap="round"/>
<line id="Line 23" x1="350.969" y1="152.501" x2="365.969" y2="151.501" stroke="black"/>
<line id="Line 24" x1="351.969" y1="157.501" x2="366.969" y2="156.501" stroke="black"/>
<circle id="Ellipse 7" cx="358.502" cy="154.5" r="3" fill="black" stroke="black"/>
<g id="XMLID_4441_">
<g id="XMLID_4442_">
<path d="M350.292 149.35L348.548 147.318C347.676 146.29 347.003 145.016 346.579 143.579L344.074 134.515C343.862 133.748 344.136 132.898 344.697 132.556C344.994 132.376 345.293 132.294 345.605 132.294C346.39 132.294 347.15 132.867 347.536 133.846L349.829 139.888C350.601 139.137 351.05 137.945 351.05 136.704V117.45C351.05 116.094 351.885 115 352.919 115C353.953 115 354.788 116.094 354.788 117.45V130.514C354.788 129.159 355.623 128.065 356.657 128.065C357.691 128.065 358.526 129.159 358.526 130.514V131.331C358.526 129.975 359.361 128.881 360.395 128.881C361.429 128.881 362.264 129.975 362.264 131.331V132.964C362.264 131.608 363.099 130.514 364.133 130.514C365.167 130.514 366.002 131.608 366.002 132.964V146.175C366.002 147.278 365.75 148.352 365.288 149.263" fill="white"/>
<path d="M350.292 149.35L348.548 147.318C347.676 146.29 347.003 145.016 346.579 143.579L344.074 134.515C343.862 133.748 344.136 132.898 344.697 132.556C344.994 132.376 345.293 132.294 345.605 132.294C346.39 132.294 347.15 132.867 347.536 133.846L349.829 139.888C350.601 139.137 351.05 137.945 351.05 136.704V117.45C351.05 116.094 351.885 115 352.919 115C353.953 115 354.788 116.094 354.788 117.45V130.514C354.788 129.159 355.623 128.065 356.657 128.065C357.691 128.065 358.526 129.159 358.526 130.514V131.331C358.526 129.975 359.361 128.881 360.395 128.881C361.429 128.881 362.264 129.975 362.264 131.331V132.964C362.264 131.608 363.099 130.514 364.133 130.514C365.167 130.514 366.002 131.608 366.002 132.964V146.175C366.002 147.278 365.75 148.352 365.288 149.263" stroke="black" stroke-width="2" stroke-miterlimit="10" stroke-linecap="round" stroke-linejoin="round"/>
</g>
</g>
</g>
</g>
<g id="hand_left">
<path id="Vector 12_2" d="M230.039 197.498C215.539 202.998 198.449 219.981 188.254 233.883L186 237.5L200 249L200 246C203.833 240.667 212.105 229.894 213 229L213 229C213.502 228.498 219 223 222 221L240 213L230.039 197.498Z" fill="white" stroke="black" stroke-width="2" stroke-linecap="round"/>
<g id="XMLID_4441__2">
<g id="XMLID_4442__2">
<path d="M200.107 246.391L200.017 249.224C199.962 250.649 199.575 252.082 198.873 253.425L194.32 261.76C193.934 262.466 193.107 262.832 192.419 262.612C192.055 262.494 191.762 262.307 191.517 262.053C190.899 261.413 190.714 260.395 191.114 259.401L193.661 253.337C192.513 253.229 191.302 253.69 190.408 254.552L176.549 267.917C175.573 268.858 174.129 268.936 173.316 268.093C172.502 267.25 172.633 265.809 173.609 264.868L183.013 255.8C182.038 256.741 180.594 256.819 179.78 255.976C178.967 255.132 179.098 253.692 180.074 252.751L180.662 252.184C179.686 253.125 178.242 253.204 177.428 252.361C176.615 251.517 176.746 250.077 177.722 249.136L178.897 248.002C177.922 248.943 176.478 249.022 175.664 248.179C174.851 247.335 174.982 245.895 175.958 244.954L185.468 235.783C186.261 235.018 187.233 234.477 188.252 234.222" fill="white"/>
<path d="M200.107 246.391L200.017 249.224C199.962 250.649 199.575 252.082 198.873 253.425L194.32 261.76C193.934 262.466 193.107 262.832 192.419 262.612C192.055 262.494 191.762 262.307 191.517 262.053C190.899 261.413 190.714 260.395 191.114 259.401L193.661 253.337C192.513 253.229 191.302 253.69 190.408 254.552L176.549 267.917C175.573 268.858 174.129 268.936 173.316 268.093C172.502 267.25 172.633 265.809 173.609 264.868L183.013 255.8C182.038 256.741 180.594 256.819 179.78 255.976C178.967 255.132 179.098 253.692 180.074 252.751L180.662 252.184C179.686 253.125 178.242 253.204 177.428 252.361C176.615 251.517 176.746 250.077 177.722 249.136L178.897 248.002C177.922 248.943 176.478 249.022 175.664 248.179C174.851 247.335 174.982 245.895 175.958 244.954L185.468 235.783C186.261 235.018 187.233 234.477 188.252 234.222" stroke="black" stroke-width="2" stroke-miterlimit="10" stroke-linecap="round" stroke-linejoin="round"/>
</g>
</g>
</g>
<path id="Vector 17" d="M312.741 181.196C311.586 181.722 293.798 185.344 277.347 177.048C267.875 174.974 252.92 176.53 250.926 177.048C248.991 177.551 242.451 182.233 238.463 185.344L226.43 194.855C226.162 195.066 226.021 195.4 226.055 195.739L227.885 213.982C227.943 214.568 228.497 214.976 229.074 214.862C233.243 214.045 232.868 214.128 233.976 214.896C235.173 215.726 236.137 228.376 236.469 234.598C259.4 209.712 239.46 272.446 250.926 288H341.655L342.153 215.415C341.655 211.267 353.003 221.363 354.118 219.044C356.112 214.896 363.839 198.305 361.595 195.194C357.109 188.973 347.637 182.751 342.153 182.233C340.159 181.196 329.691 179.122 329.691 179.122C329.691 179.122 320.717 177.567 312.741 181.196Z" fill="#D9D9D9" stroke="black" stroke-width="2" stroke-linecap="round"/>
<rect id="Rectangle 1" x="3" y="282" width="586" height="21" fill="white" stroke="black" stroke-width="6"/>
<line id="Line 1" x1="3" y1="532.055" x2="3" y2="305" stroke="black" stroke-width="6"/>
<line id="Line 2" x1="589" y1="532.055" x2="589" y2="305" stroke="black" stroke-width="6"/>
<g id="Group 11">
<g id="Group 10">
<rect id="Rectangle 16" x="196.5" y="265.586" width="222.443" height="13.373" fill="white" stroke="black" stroke-width="3"/>
<line id="Line 25" x1="232.265" y1="252.751" x2="232.265" y2="265.346" stroke="black" stroke-width="4"/>
<line id="Line 26" x1="231.524" y1="255.03" x2="240.341" y2="255.03" stroke="black" stroke-width="3"/>
<line id="Line 29" y1="-2" x2="12.5946" y2="-2" transform="matrix(2.73195e-09 1 1 -1.74845e-07 280.643 252.751)" stroke="black" stroke-width="4"/>
<line id="Line 30" y1="-1.5" x2="8.81622" y2="-1.5" transform="matrix(-1 0 0 1 279.384 256.53)" stroke="black" stroke-width="3"/>
<line id="Line 33" x1="255.195" y1="254.011" x2="255.195" y2="264.086" stroke="black" stroke-width="2"/>
<line id="Line 34" x1="336.8" y1="252.751" x2="336.8" y2="265.346" stroke="black" stroke-width="4"/>
<line id="Line 35" x1="336.059" y1="255.03" x2="344.876" y2="255.03" stroke="black" stroke-width="3"/>
<line id="Line 36" y1="-2" x2="12.5946" y2="-2" transform="matrix(2.73195e-09 1 1 -1.74845e-07 385.178 252.751)" stroke="black" stroke-width="4"/>
<line id="Line 37" y1="-1.5" x2="8.81622" y2="-1.5" transform="matrix(-1 0 0 1 383.919 256.53)" stroke="black" stroke-width="3"/>
<line id="Line 38" x1="359.73" y1="254.011" x2="359.73" y2="264.086" stroke="black" stroke-width="2"/>
</g>
<g id="Group 8">
<path id="Rectangle 17" d="M222.948 195.057H287.959V240.492C287.959 245.739 283.706 249.992 278.459 249.992H232.448C227.202 249.992 222.948 245.739 222.948 240.492V195.057Z" fill="white" stroke="black" stroke-width="3"/>
<rect id="Rectangle 18" x="221.448" y="189.778" width="68.0108" height="2.51892" fill="black"/>
<rect id="Rectangle 19" x="245.378" y="186" width="20.1514" height="5.03784" fill="black"/>
</g>
<g id="Group 9">
<path id="Rectangle 20" d="M322.446 236.619H398.792V240.492C398.792 245.739 394.539 249.992 389.292 249.992H331.946C326.699 249.992 322.446 245.739 322.446 240.492V236.619Z" fill="white" stroke="black" stroke-width="3"/>
<line id="Line 39" x1="397.773" y1="238.157" x2="428" y2="238.157" stroke="black" stroke-width="4"/>
</g>
</g>
<g id="Group 12">
<rect id="Rectangle 21" x="115" y="275.969" width="72" height="5" fill="black"/>
<path id="Vector 18" d="M151 276.469C177 270.969 177.5 268.469 186 269.969" stroke="black" stroke-width="2" stroke-linecap="round"/>
<path id="Vector 19" d="M151 276.969C141.516 273.708 121.039 267.598 115 269.246" stroke="black" stroke-width="2" stroke-linecap="round"/>
<path id="Vector 20" d="M150.5 277.969C140.333 275.302 117.8 271.969 115 273.969" stroke="black" stroke-width="2" stroke-linecap="round"/>
<path id="Vector 21" d="M151 277.469C162 275.636 184.4 272.369 186 273.969" stroke="black" stroke-width="2" stroke-linecap="round"/>
<path id="Vector 22" d="M151 278.469C147.5 271.969 124.5 263.969 115 266.469" stroke="black" stroke-width="2" stroke-linecap="round"/>
</g>
<rect id="Rectangle 22" x="6" y="306" width="580" height="226" fill="white"/>
<g id="Group 6">
<g id="If water boil">
<path d="M320.215 11.3984C319.715 11.3984 319.086 11.3477 318.328 11.2461L316.441 11C316.262 13.2734 316.172 15.4453 316.172 17.5156C316.172 18.0625 316.188 18.7383 316.219 19.543C316.25 20.3477 316.266 21.0234 316.266 21.5703C316.266 22.3047 316.238 22.9727 316.184 23.5742L319.875 23.5273C320.203 23.5273 320.477 23.6445 320.695 23.8789C320.922 24.1055 321.035 24.3867 321.035 24.7227C321.035 25.0664 320.922 25.3555 320.695 25.5898C320.477 25.8164 320.203 25.9297 319.875 25.9297C319.438 25.9297 318.781 25.9414 317.906 25.9648C317.031 25.9805 316.375 25.9883 315.938 25.9883C315.422 25.9883 314.648 26.0586 313.617 26.1992C312.594 26.3477 311.82 26.4219 311.297 26.4219C310.969 26.4219 310.691 26.3047 310.465 26.0703C310.246 25.8438 310.137 25.5625 310.137 25.2266C310.137 24.8906 310.246 24.6055 310.465 24.3711C310.691 24.1367 310.969 24.0195 311.297 24.0195C311.805 24.0195 312.645 23.9375 313.816 23.7734C313.895 23.1406 313.934 22.418 313.934 21.6055C313.934 21.0664 313.906 20.4102 313.852 19.6367C313.805 18.8555 313.781 18.1992 313.781 17.668C313.781 15.8633 313.891 13.6094 314.109 10.9062L312.586 10.9531L311.062 10.9883C310.727 10.9883 310.445 10.875 310.219 10.6484C309.992 10.4219 309.879 10.1328 309.879 9.78125C309.879 9.05469 310.246 8.65625 310.98 8.58594C311.613 8.52344 312.797 8.49219 314.531 8.49219C316.086 8.49219 318.035 8.66016 320.379 8.99609C321.074 9.09766 321.422 9.51562 321.422 10.25C321.422 10.6172 321.289 10.9102 321.023 11.1289C320.789 11.3086 320.52 11.3984 320.215 11.3984ZM331.629 9.52344C329.738 9.52344 328.68 10.8359 328.453 13.4609L328.418 14.1875C329.746 14.0938 330.605 14.0469 330.996 14.0469C332.238 14.0469 332.859 14.4375 332.859 15.2188C332.859 15.7891 332.555 16.1289 331.945 16.2383C331.68 16.2852 331.367 16.3047 331.008 16.2969C330.656 16.2812 329.758 16.332 328.312 16.4492L328.219 19.1211C328.219 19.6055 328.234 20.332 328.266 21.3008C328.297 22.2695 328.312 22.9922 328.312 23.4688C328.312 24.9531 328.227 26.1094 328.055 26.9375C327.922 27.5625 327.559 27.875 326.965 27.875C326.645 27.875 326.371 27.7695 326.145 27.5586C325.918 27.3555 325.805 27.0977 325.805 26.7852C325.805 26.7227 325.812 26.6445 325.828 26.5508C325.992 25.5352 326.074 24.4297 326.074 23.2344L326.039 20.0352V16.6367C325.062 16.7148 324.445 16.7539 324.188 16.7539C323.398 16.7539 323.004 16.375 323.004 15.6172C323.004 14.8438 323.688 14.4375 325.055 14.3984L326.18 14.3633C326.203 13.9258 326.262 13.332 326.355 12.582C326.559 10.8477 326.996 9.57031 327.668 8.75C328.48 7.75781 329.75 7.26172 331.477 7.26172C332.594 7.26172 333.152 7.64062 333.152 8.39844C333.152 9.14844 332.645 9.52344 331.629 9.52344Z" fill="black"/>
<path d="M357.164 15.5117C356.555 18.0586 355.758 20.9375 354.773 24.1484C354.555 24.8594 354.191 25.5898 353.684 26.3398C353.41 26.7539 353.039 26.957 352.57 26.9492C351.719 26.9336 351.055 25.875 350.578 23.7734C350.422 23.1016 350.262 22.1875 350.098 21.0312L349.711 18.418L348.75 20.6562L346.969 25.4961C346.867 25.793 346.719 26.0195 346.523 26.1758C346.289 26.6289 345.914 26.8633 345.398 26.8789C344.805 26.9023 344.23 25.7383 343.676 23.3867C343.395 22.1758 343.113 20.5352 342.832 18.4648L342.551 16.707C342.449 16.0039 342.398 15.4141 342.398 14.9375C342.398 14.6094 342.512 14.3398 342.738 14.1289C342.973 13.9102 343.254 13.8008 343.582 13.8008C344.176 13.8008 344.543 14.125 344.684 14.7734C344.785 15.2344 344.867 15.8047 344.93 16.4844L345.105 18.207L345.797 23.4688C346.664 21.0625 347.562 18.2891 348.492 15.1484C348.75 14.2812 349.199 13.8477 349.84 13.8477C350.457 13.8477 350.875 14.332 351.094 15.3008C351.297 16.2148 351.551 17.6211 351.855 19.5195C352.168 21.4883 352.445 23.0234 352.688 24.125L353.543 20.9375L355.055 14.5508C355.172 14.0742 355.508 13.8359 356.062 13.8359C356.391 13.8359 356.676 13.9492 356.918 14.1758C357.16 14.3945 357.281 14.6602 357.281 14.9727C357.281 15.0117 357.242 15.1914 357.164 15.5117ZM368.719 26.7734C368.57 26.7734 368.301 26.6016 367.91 26.2578C367.559 25.9375 367.297 25.6523 367.125 25.4023C366.375 25.8086 365.715 26.1133 365.145 26.3164C364.574 26.5273 364.098 26.6328 363.715 26.6328C361.887 26.6328 360.555 26.1172 359.719 25.0859C358.93 24.1172 358.535 22.6328 358.535 20.6328C358.535 18.7422 359.184 17.125 360.48 15.7812C361.785 14.4375 363.34 13.7656 365.145 13.7656C365.824 13.7656 366.586 13.9414 367.43 14.293C368.492 14.7305 369.023 15.2578 369.023 15.875C369.023 16.0859 368.945 16.2734 368.789 16.4375C368.711 16.7344 368.648 17.2227 368.602 17.9023C368.562 18.582 368.539 19.4531 368.531 20.5156C368.523 21.4844 368.59 22.25 368.73 22.8125C368.809 23.1562 369.055 23.8438 369.469 24.875C369.523 25.0156 369.613 25.2227 369.738 25.4961L369.809 25.6953C369.809 26.0078 369.699 26.2656 369.48 26.4688C369.262 26.6719 369.008 26.7734 368.719 26.7734ZM366.281 18.6289C366.281 18.293 366.301 17.9297 366.34 17.5391C366.387 17.1406 366.453 16.7188 366.539 16.2734C366.25 16.125 366 16.0156 365.789 15.9453C365.586 15.875 365.422 15.8398 365.297 15.8398C364.086 15.8398 363.039 16.3359 362.156 17.3281C361.281 18.3125 360.844 19.4492 360.844 20.7383C360.844 22.0195 361.07 22.9805 361.523 23.6211C361.977 24.2617 362.656 24.582 363.562 24.582C364.312 24.582 364.949 24.4453 365.473 24.1719C365.754 24.0234 366.148 23.7266 366.656 23.2812C366.406 21.2109 366.281 19.6602 366.281 18.6289ZM379.688 16.0156C379.523 16.0156 379.328 16.0078 379.102 15.9922C378.883 15.9766 378.691 15.9688 378.527 15.9688C378.348 15.9688 377.816 16.0273 376.934 16.1445L377.156 23.0703L377.168 23.5859L377.18 24.1836C377.211 25.8945 376.801 26.75 375.949 26.75C375.637 26.75 375.363 26.6484 375.129 26.4453C374.902 26.2422 374.789 25.9883 374.789 25.6836C374.789 25.3867 374.801 24.9414 374.824 24.3477C374.848 23.7539 374.859 23.3086 374.859 23.0117L374.625 16.168C374.055 16.1445 373.188 16.0781 372.023 15.9688C371.328 15.875 370.98 15.4883 370.98 14.8086C370.98 14.4648 371.086 14.1797 371.297 13.9531C371.508 13.7266 371.777 13.6133 372.105 13.6133L374.566 13.8125C374.566 13.4141 374.547 12.8828 374.508 12.2188C374.477 11.5469 374.461 11.0625 374.461 10.7656C374.461 10.4375 374.574 10.168 374.801 9.95703C375.027 9.73828 375.305 9.62891 375.633 9.62891C376.336 9.62891 376.746 10.2031 376.863 11.3516C376.887 11.6406 376.898 11.9883 376.898 12.3945L376.875 13.0742L376.863 13.8008C377.832 13.6758 378.387 13.6133 378.527 13.6133C379.34 13.6133 379.871 13.6523 380.121 13.7305C380.598 13.8867 380.836 14.2539 380.836 14.832C380.836 15.1758 380.727 15.4609 380.508 15.6875C380.297 15.9062 380.023 16.0156 379.688 16.0156ZM388.641 26.5391C386.875 26.5391 385.445 26.0977 384.352 25.2148C383.156 24.2383 382.559 22.8711 382.559 21.1133C382.559 19.082 383.051 17.3789 384.035 16.0039C385.105 14.5039 386.535 13.7539 388.324 13.7539C389.621 13.7539 390.68 13.9727 391.5 14.4102C392.508 14.9492 393.012 15.7773 393.012 16.8945C393.012 17.6758 392.57 18.3867 391.688 19.0273C391.297 19.3086 390.469 19.7461 389.203 20.3398L384.727 22.4609C385.164 23.1094 385.707 23.5977 386.355 23.9258C387.012 24.2539 387.773 24.418 388.641 24.418C389.18 24.418 389.812 24.3164 390.539 24.1133C391.461 23.8555 392.055 23.5195 392.32 23.1055C392.586 22.6836 392.871 22.4727 393.176 22.4727C393.449 22.4727 393.691 22.5781 393.902 22.7891C394.121 22.9922 394.23 23.2305 394.23 23.5039C394.23 24.3711 393.531 25.1172 392.133 25.7422C390.938 26.2734 389.773 26.5391 388.641 26.5391ZM388.324 15.8633C387.371 15.8633 386.578 16.2344 385.945 16.9766C385.312 17.7109 384.84 18.8203 384.527 20.3047L388.125 18.5938C389.539 17.9062 390.547 17.3086 391.148 16.8008C390.477 16.1758 389.535 15.8633 388.324 15.8633ZM405.434 17.3398C405.379 18.3164 404.988 18.8047 404.262 18.8047C403.59 18.8047 403.254 18.418 403.254 17.6445C403.254 17.4961 403.242 17.2227 403.219 16.8242L403.184 15.8398C401.949 15.9883 400.961 16.3359 400.219 16.8828C399.523 17.3906 398.945 18.1562 398.484 19.1797L398.508 25.6016C398.508 26.3906 398.121 26.7852 397.348 26.7852C396.66 26.7852 396.316 26.3906 396.316 25.6016V17.375C396.316 17.1172 396.324 16.7305 396.34 16.2148C396.363 15.6992 396.375 15.3125 396.375 15.0547C396.375 14.2656 396.719 13.8711 397.406 13.8711C398.172 13.8711 398.559 14.5195 398.566 15.8164C400.066 14.3711 401.73 13.6484 403.559 13.6484C404.191 13.6484 404.664 13.8867 404.977 14.3633C405.289 14.8398 405.445 15.5586 405.445 16.5195C405.445 16.9258 405.441 17.1992 405.434 17.3398ZM420.492 26.4922C419.297 26.4922 418.211 26.2578 417.234 25.7891C416.984 26.1641 416.68 26.3516 416.32 26.3516C416.023 26.3516 415.77 26.2461 415.559 26.0352C415.355 25.832 415.254 25.5742 415.254 25.2617C415.254 25.0586 415.262 24.7578 415.277 24.3594C415.301 23.9609 415.312 23.6602 415.312 23.457C415.312 22.6289 415.289 21.3906 415.242 19.7422C415.203 18.0859 415.184 16.8438 415.184 16.0156C415.184 15.4453 415.188 14.3672 415.195 12.7812C415.203 11.1875 415.207 10.1016 415.207 9.52344C415.207 9.05469 415.305 8.63281 415.5 8.25781C415.758 7.78125 416.113 7.54297 416.566 7.54297C417.152 7.54297 417.445 7.88281 417.445 8.5625C417.445 8.67188 417.426 8.83203 417.387 9.04297C417.348 9.25391 417.328 9.41406 417.328 9.52344L417.293 12.0898L417.27 15.0781C417.949 14.6172 418.594 14.2734 419.203 14.0469C419.82 13.8125 420.398 13.6953 420.938 13.6953C422.617 13.6953 423.98 14.3398 425.027 15.6289C426.012 16.8398 426.504 18.3281 426.504 20.0938C426.504 21.875 425.93 23.3867 424.781 24.6289C423.633 25.8711 422.203 26.4922 420.492 26.4922ZM420.938 15.9102C420.297 15.9102 419.641 16.0898 418.969 16.4492C418.641 16.6289 418.078 17.0156 417.281 17.6094L417.258 19.6367L417.27 21.4648L417.281 23.3867C417.656 23.5586 418.184 23.7773 418.863 24.043C419.348 24.1914 419.891 24.2656 420.492 24.2656C421.625 24.2656 422.555 23.8672 423.281 23.0703C424.008 22.2734 424.371 21.2812 424.371 20.0938C424.371 18.9297 424.078 17.957 423.492 17.1758C422.859 16.332 422.008 15.9102 420.938 15.9102ZM433.664 26.6914C432.352 26.6914 431.223 26.207 430.277 25.2383C429.223 24.1602 428.668 22.7109 428.613 20.8906C428.566 19.125 429.012 17.5703 429.949 16.2266C431.043 14.6406 432.566 13.8477 434.52 13.8477C436.082 13.8477 437.266 14.5625 438.07 15.9922C438.711 17.1484 439.02 18.5391 438.996 20.1641C438.973 21.8984 438.52 23.3789 437.637 24.6055C436.637 25.9961 435.312 26.6914 433.664 26.6914ZM434.367 16.2266C433.219 16.2188 432.324 16.7656 431.684 17.8672C431.176 18.75 430.922 19.7578 430.922 20.8906C430.922 22.0234 431.23 22.9062 431.848 23.5391C432.363 24.0625 432.969 24.3242 433.664 24.3242C434.477 24.3242 435.176 24.0273 435.762 23.4336C436.426 22.7773 436.777 21.8906 436.816 20.7734C436.926 17.75 436.109 16.2344 434.367 16.2266ZM444.141 11.1641C443.766 11.1641 443.441 11.0312 443.168 10.7656C442.895 10.5 442.758 10.1797 442.758 9.80469C442.758 9.42969 442.895 9.10938 443.168 8.84375C443.441 8.57812 443.766 8.44531 444.141 8.44531C444.516 8.44531 444.836 8.57812 445.102 8.84375C445.375 9.10938 445.512 9.42969 445.512 9.80469C445.512 10.1797 445.375 10.5 445.102 10.7656C444.836 11.0312 444.516 11.1641 444.141 11.1641ZM444.668 20.6797C444.668 21.1484 444.68 21.8516 444.703 22.7891C444.734 23.7188 444.75 24.418 444.75 24.8867C444.75 25.2305 444.645 25.5117 444.434 25.7305C444.223 25.9492 443.945 26.0586 443.602 26.0586C443.266 26.0586 442.988 25.9492 442.77 25.7305C442.559 25.5117 442.453 25.2305 442.453 24.8867C442.453 24.418 442.438 23.7188 442.406 22.7891C442.383 21.8516 442.371 21.1484 442.371 20.6797C442.371 19.9453 442.41 19.0312 442.488 17.9375C442.566 16.8359 442.605 15.918 442.605 15.1836C442.605 14.832 442.711 14.5469 442.922 14.3281C443.141 14.1094 443.418 14 443.754 14C444.09 14 444.363 14.1094 444.574 14.3281C444.793 14.5469 444.902 14.832 444.902 15.1836C444.902 15.918 444.863 16.8359 444.785 17.9375C444.707 19.0312 444.668 19.9453 444.668 20.6797ZM451.605 16.7891L451.43 22.6133C451.43 23.2305 451.398 24.1367 451.336 25.332C451.258 26.1133 450.875 26.5039 450.188 26.5039C449.422 26.5039 449.039 26.1055 449.039 25.3086C449.039 24.3633 449.082 22.9453 449.168 21.0547C449.254 19.1562 449.297 17.7344 449.297 16.7891C449.297 15.5547 449.316 14.1445 449.355 12.5586C449.395 10.9648 449.414 9.55078 449.414 8.31641C449.414 7.53516 449.797 7.14453 450.562 7.14453C451.336 7.14453 451.723 7.53516 451.723 8.31641C451.723 9.55078 451.703 10.9648 451.664 12.5586C451.625 14.1445 451.605 15.5547 451.605 16.7891Z" fill="#2684FF"/>
</g>
<path id="Put spaghetti" d="M360.84 54.1211C360.621 54.1211 360.145 54.0703 359.41 53.9688C359.348 55.1484 359.316 57.2148 359.316 60.168C359.316 60.4805 359.215 60.7461 359.012 60.9648C358.809 61.1758 358.555 61.2812 358.25 61.2812C357.938 61.2812 357.68 61.1758 357.477 60.9648C357.273 60.7461 357.172 60.4805 357.172 60.168V56.7227C357.172 55.5742 357.242 53.957 357.383 51.8711C357.539 49.6133 357.625 47.9961 357.641 47.0195V45.4023C357.641 44.6289 357.688 44.0664 357.781 43.7148C357.961 43.0273 358.344 42.7305 358.93 42.8242C359.18 42.7461 359.535 42.6875 359.996 42.6484C360.457 42.6094 361.023 42.5898 361.695 42.5898C363.125 42.5898 364.465 43.0781 365.715 44.0547C367.09 45.1328 367.777 46.4297 367.777 47.9453C367.777 49.8828 367.043 51.4258 365.574 52.5742C364.262 53.6055 362.684 54.1211 360.84 54.1211ZM361.426 44.8164C361.082 44.8164 360.773 44.8242 360.5 44.8398C360.234 44.8555 360.008 44.8789 359.82 44.9102L359.797 47.0664L359.551 51.7305L360.84 51.8828C362.152 51.8828 363.258 51.5508 364.156 50.8867C365.141 50.1602 365.633 49.1797 365.633 47.9453C365.633 47.0703 365.164 46.3164 364.227 45.6836C363.359 45.1055 362.426 44.8164 361.426 44.8164ZM379.684 54.1562C379.684 54.7188 379.688 55.5625 379.695 56.6875C379.703 57.8125 379.707 58.6562 379.707 59.2188C379.707 59.3906 379.719 59.6523 379.742 60.0039C379.773 60.3555 379.789 60.6172 379.789 60.7891C379.789 61.125 379.676 61.3984 379.449 61.6094C379.223 61.8281 378.945 61.9375 378.617 61.9375C378.016 61.9375 377.633 61.5664 377.469 60.8242C376.492 61.332 375.367 61.5859 374.094 61.5859C373.07 61.5859 372.223 61.3594 371.551 60.9062C370.809 60.4062 370.367 59.6758 370.227 58.7148C369.922 56.6445 369.77 54.8008 369.77 53.1836C369.77 52.1133 369.887 50.8945 370.121 49.5273C370.23 48.8477 370.602 48.5078 371.234 48.5078C371.57 48.5078 371.852 48.6172 372.078 48.8359C372.305 49.0469 372.418 49.3203 372.418 49.6562C372.418 50.0156 372.359 50.5898 372.242 51.3789C372.133 52.168 372.078 52.7695 372.078 53.1836C372.078 54.4883 372.121 55.6055 372.207 56.5352C372.293 57.4648 372.422 58.2109 372.594 58.7734C372.852 58.9141 373.105 59.0234 373.355 59.1016C373.605 59.1719 373.852 59.207 374.094 59.207C375.141 59.207 376.246 59.0391 377.41 58.7031L377.398 56.3242L377.375 54.0508C377.375 52.3633 377.449 50.8984 377.598 49.6562C377.684 48.9375 378.062 48.5781 378.734 48.5781C379.07 48.5781 379.352 48.6875 379.578 48.9062C379.805 49.125 379.91 49.3984 379.895 49.7266L379.684 54.1562ZM390.453 51.0156C390.289 51.0156 390.094 51.0078 389.867 50.9922C389.648 50.9766 389.457 50.9688 389.293 50.9688C389.113 50.9688 388.582 51.0273 387.699 51.1445L387.922 58.0703L387.934 58.5859L387.945 59.1836C387.977 60.8945 387.566 61.75 386.715 61.75C386.402 61.75 386.129 61.6484 385.895 61.4453C385.668 61.2422 385.555 60.9883 385.555 60.6836C385.555 60.3867 385.566 59.9414 385.59 59.3477C385.613 58.7539 385.625 58.3086 385.625 58.0117L385.391 51.168C384.82 51.1445 383.953 51.0781 382.789 50.9688C382.094 50.875 381.746 50.4883 381.746 49.8086C381.746 49.4648 381.852 49.1797 382.062 48.9531C382.273 48.7266 382.543 48.6133 382.871 48.6133L385.332 48.8125C385.332 48.4141 385.312 47.8828 385.273 47.2188C385.242 46.5469 385.227 46.0625 385.227 45.7656C385.227 45.4375 385.34 45.168 385.566 44.957C385.793 44.7383 386.07 44.6289 386.398 44.6289C387.102 44.6289 387.512 45.2031 387.629 46.3516C387.652 46.6406 387.664 46.9883 387.664 47.3945L387.641 48.0742L387.629 48.8008C388.598 48.6758 389.152 48.6133 389.293 48.6133C390.105 48.6133 390.637 48.6523 390.887 48.7305C391.363 48.8867 391.602 49.2539 391.602 49.832C391.602 50.1758 391.492 50.4609 391.273 50.6875C391.062 50.9062 390.789 51.0156 390.453 51.0156ZM409.016 51.9766C408.586 51.9766 408.285 51.832 408.113 51.543C407.996 51.3398 407.895 50.918 407.809 50.2773C407.223 50.4258 406.32 50.6992 405.102 51.0977C403.844 51.5977 403.211 52.2148 403.203 52.9492C403.438 53.0352 403.668 53.0977 403.895 53.1367C405.691 53.457 407.027 53.8984 407.902 54.4609C409.176 55.2812 409.812 56.4688 409.812 58.0234C409.812 59.2969 409.262 60.2578 408.16 60.9062C407.246 61.4375 406.09 61.7031 404.691 61.7031C403.668 61.7031 402.691 61.5312 401.762 61.1875C400.559 60.75 399.957 60.1406 399.957 59.3594C399.957 59.0469 400.078 58.7734 400.32 58.5391C400.57 58.3047 400.852 58.1875 401.164 58.1875C401.406 58.1875 401.719 58.375 402.102 58.75C402.289 58.9297 402.711 59.0781 403.367 59.1953C403.891 59.2891 404.332 59.3359 404.691 59.3359C405.348 59.3359 405.926 59.2578 406.426 59.1016C407.152 58.875 407.516 58.5156 407.516 58.0234C407.516 56.9609 406.773 56.2422 405.289 55.8672L404.07 55.5977C403.031 55.3711 402.293 55.1055 401.855 54.8008C401.223 54.3633 400.906 53.7031 400.906 52.8203C400.906 51.1875 401.676 50.0234 403.215 49.3281C403.684 49.1172 404.434 48.8672 405.465 48.5781C406.496 48.2812 407.234 48.0312 407.68 47.8281C408 47.6875 408.348 47.6172 408.723 47.6172C409.059 47.6172 409.332 47.7266 409.543 47.9453C409.762 48.1641 409.871 48.4492 409.871 48.8008C409.871 49.0273 409.918 49.3594 410.012 49.7969C410.113 50.2344 410.164 50.5664 410.164 50.793C410.164 51.1445 410.055 51.4297 409.836 51.6484C409.625 51.8672 409.352 51.9766 409.016 51.9766ZM417.781 61.4102C417 61.4102 416.141 61.2852 415.203 61.0352L415.18 66.6367C415.18 66.9805 415.07 67.2617 414.852 67.4805C414.641 67.6992 414.367 67.8086 414.031 67.8086C413.695 67.8086 413.418 67.6992 413.199 67.4805C412.988 67.2617 412.883 66.9805 412.883 66.6367L412.918 61.9492V57.2734C412.895 55.5625 412.836 54.0039 412.742 52.5977L412.566 50.2188C412.566 49.6641 412.668 49.1953 412.871 48.8125C413.105 48.3516 413.445 48.1211 413.891 48.1211C414.195 48.1211 414.449 48.2305 414.652 48.4492C414.863 48.6602 414.969 48.9219 414.969 49.2344C414.969 49.3047 414.957 49.4336 414.934 49.6211C414.895 49.8633 414.867 50.0859 414.852 50.2891C415.523 49.8281 416.172 49.4844 416.797 49.2578C417.422 49.0234 418.02 48.9062 418.59 48.9062C420.191 48.9062 421.363 49.6172 422.105 51.0391C422.691 52.1641 422.984 53.6523 422.984 55.5039C422.984 57.1914 422.531 58.582 421.625 59.6758C420.664 60.832 419.383 61.4102 417.781 61.4102ZM418.59 51.25C417.871 51.25 417.223 51.4102 416.645 51.7305C416.23 51.957 415.707 52.3711 415.074 52.9727C415.176 54.7461 415.227 56.6094 415.227 58.5625C416.078 58.8906 416.93 59.0547 417.781 59.0547C418.758 59.0547 419.504 58.6914 420.02 57.9648C420.465 57.332 420.688 56.5117 420.688 55.5039C420.688 54.082 420.512 53.0195 420.16 52.3164C419.816 51.6055 419.293 51.25 418.59 51.25ZM434.797 61.7734C434.648 61.7734 434.379 61.6016 433.988 61.2578C433.637 60.9375 433.375 60.6523 433.203 60.4023C432.453 60.8086 431.793 61.1133 431.223 61.3164C430.652 61.5273 430.176 61.6328 429.793 61.6328C427.965 61.6328 426.633 61.1172 425.797 60.0859C425.008 59.1172 424.613 57.6328 424.613 55.6328C424.613 53.7422 425.262 52.125 426.559 50.7812C427.863 49.4375 429.418 48.7656 431.223 48.7656C431.902 48.7656 432.664 48.9414 433.508 49.293C434.57 49.7305 435.102 50.2578 435.102 50.875C435.102 51.0859 435.023 51.2734 434.867 51.4375C434.789 51.7344 434.727 52.2227 434.68 52.9023C434.641 53.582 434.617 54.4531 434.609 55.5156C434.602 56.4844 434.668 57.25 434.809 57.8125C434.887 58.1562 435.133 58.8438 435.547 59.875C435.602 60.0156 435.691 60.2227 435.816 60.4961L435.887 60.6953C435.887 61.0078 435.777 61.2656 435.559 61.4688C435.34 61.6719 435.086 61.7734 434.797 61.7734ZM432.359 53.6289C432.359 53.293 432.379 52.9297 432.418 52.5391C432.465 52.1406 432.531 51.7188 432.617 51.2734C432.328 51.125 432.078 51.0156 431.867 50.9453C431.664 50.875 431.5 50.8398 431.375 50.8398C430.164 50.8398 429.117 51.3359 428.234 52.3281C427.359 53.3125 426.922 54.4492 426.922 55.7383C426.922 57.0195 427.148 57.9805 427.602 58.6211C428.055 59.2617 428.734 59.582 429.641 59.582C430.391 59.582 431.027 59.4453 431.551 59.1719C431.832 59.0234 432.227 58.7266 432.734 58.2812C432.484 56.2109 432.359 54.6602 432.359 53.6289ZM447.57 55.9492L447.301 59.8867C447.254 61.4492 447.094 62.7266 446.82 63.7188C446.469 64.9844 445.906 65.918 445.133 66.5195C444.195 67.2461 442.84 67.6094 441.066 67.6094C440.027 67.6094 439.156 67.5391 438.453 67.3984C437.469 67.2031 436.977 66.7969 436.977 66.1797C436.977 65.4844 437.316 65.1367 437.996 65.1367C438.277 65.1367 438.746 65.2031 439.402 65.3359C440.059 65.4766 440.785 65.5391 441.582 65.5234C443.082 65.5 444.117 64.7734 444.688 63.3438C445.062 62.3906 445.262 60.9258 445.285 58.9492C444.863 59.7305 444.359 60.3164 443.773 60.707C443.195 61.0977 442.531 61.293 441.781 61.293C440.367 61.293 439.215 60.8125 438.324 59.8516C437.441 58.8828 437 57.6289 437 56.0898C437 53.9805 437.605 52.2812 438.816 50.9922C440.066 49.6641 441.77 49 443.926 49C444.652 49 445.262 49.0938 445.754 49.2812C446.246 49.4688 446.621 49.75 446.879 50.125C447.715 50.1484 448.133 50.6133 448.133 51.5195C448.133 52.0742 448.051 52.8164 447.887 53.7461C447.707 54.8242 447.602 55.5586 447.57 55.9492ZM443.809 50.875C442.324 50.875 441.176 51.3867 440.363 52.4102C439.637 53.332 439.273 54.5039 439.273 55.9258C439.273 57.0586 439.488 57.9102 439.918 58.4805C440.348 59.0508 440.992 59.3359 441.852 59.3359C442.641 59.3359 443.406 58.8906 444.148 58C444.82 57.1797 445.203 56.3672 445.297 55.5625C445.461 54.7188 445.637 53.3945 445.824 51.5898C445.512 51.3477 445.188 51.168 444.852 51.0508C444.516 50.9336 444.168 50.875 443.809 50.875ZM460.484 61.7266C459.93 61.7266 459.566 61.4297 459.395 60.8359C459.215 60.1953 459.051 59.2852 458.902 58.1055C458.762 56.9727 458.691 56.043 458.691 55.3164C458.691 55.1133 458.699 54.8047 458.715 54.3906C458.738 53.9766 458.75 53.668 458.75 53.4648C458.75 51.9961 458.383 51.2617 457.648 51.2617C456.656 51.2617 455.77 51.7109 454.988 52.6094C454.59 53.0703 454.043 53.9492 453.348 55.2461C453.348 58.2227 453.223 59.9844 452.973 60.5312C452.754 61.0156 452.414 61.2578 451.953 61.2578C451.633 61.2578 451.352 61.1484 451.109 60.9297C450.867 60.7109 450.746 60.4453 450.746 60.1328C450.746 60.0234 450.781 59.8516 450.852 59.6172C450.914 59.4219 450.957 58.8516 450.98 57.9062L451.016 56.1719L451.051 47.5586C451.105 46.5898 451.133 45.9375 451.133 45.6016C451.133 45.2031 451.094 44.8281 451.016 44.4766C450.945 44.1172 450.91 43.7461 450.91 43.3633C450.91 43.0352 451.023 42.7656 451.25 42.5547C451.477 42.3359 451.754 42.2266 452.082 42.2266C452.723 42.2266 453.098 42.5703 453.207 43.2578C453.332 44.0156 453.395 44.6992 453.395 45.3086C453.395 46.1289 453.367 46.9844 453.312 47.875C453.266 48.7266 453.246 49.582 453.254 50.4414L453.266 51.4727C453.906 50.6133 454.59 49.9727 455.316 49.5508C456.051 49.1211 456.828 48.9062 457.648 48.9062C458.945 48.9062 459.836 49.3281 460.32 50.1719C460.664 50.7656 460.859 51.7656 460.906 53.1719L461 55.4102L461.234 57.8477C461.344 58.7617 461.477 59.5664 461.633 60.2617C461.664 60.3945 461.68 60.5078 461.68 60.6016C461.68 60.9219 461.562 61.1875 461.328 61.3984C461.094 61.6172 460.812 61.7266 460.484 61.7266ZM470.023 61.5391C468.258 61.5391 466.828 61.0977 465.734 60.2148C464.539 59.2383 463.941 57.8711 463.941 56.1133C463.941 54.082 464.434 52.3789 465.418 51.0039C466.488 49.5039 467.918 48.7539 469.707 48.7539C471.004 48.7539 472.062 48.9727 472.883 49.4102C473.891 49.9492 474.395 50.7773 474.395 51.8945C474.395 52.6758 473.953 53.3867 473.07 54.0273C472.68 54.3086 471.852 54.7461 470.586 55.3398L466.109 57.4609C466.547 58.1094 467.09 58.5977 467.738 58.9258C468.395 59.2539 469.156 59.418 470.023 59.418C470.562 59.418 471.195 59.3164 471.922 59.1133C472.844 58.8555 473.438 58.5195 473.703 58.1055C473.969 57.6836 474.254 57.4727 474.559 57.4727C474.832 57.4727 475.074 57.5781 475.285 57.7891C475.504 57.9922 475.613 58.2305 475.613 58.5039C475.613 59.3711 474.914 60.1172 473.516 60.7422C472.32 61.2734 471.156 61.5391 470.023 61.5391ZM469.707 50.8633C468.754 50.8633 467.961 51.2344 467.328 51.9766C466.695 52.7109 466.223 53.8203 465.91 55.3047L469.508 53.5938C470.922 52.9062 471.93 52.3086 472.531 51.8008C471.859 51.1758 470.918 50.8633 469.707 50.8633ZM485.539 51.0156C485.375 51.0156 485.18 51.0078 484.953 50.9922C484.734 50.9766 484.543 50.9688 484.379 50.9688C484.199 50.9688 483.668 51.0273 482.785 51.1445L483.008 58.0703L483.02 58.5859L483.031 59.1836C483.062 60.8945 482.652 61.75 481.801 61.75C481.488 61.75 481.215 61.6484 480.98 61.4453C480.754 61.2422 480.641 60.9883 480.641 60.6836C480.641 60.3867 480.652 59.9414 480.676 59.3477C480.699 58.7539 480.711 58.3086 480.711 58.0117L480.477 51.168C479.906 51.1445 479.039 51.0781 477.875 50.9688C477.18 50.875 476.832 50.4883 476.832 49.8086C476.832 49.4648 476.938 49.1797 477.148 48.9531C477.359 48.7266 477.629 48.6133 477.957 48.6133L480.418 48.8125C480.418 48.4141 480.398 47.8828 480.359 47.2188C480.328 46.5469 480.312 46.0625 480.312 45.7656C480.312 45.4375 480.426 45.168 480.652 44.957C480.879 44.7383 481.156 44.6289 481.484 44.6289C482.188 44.6289 482.598 45.2031 482.715 46.3516C482.738 46.6406 482.75 46.9883 482.75 47.3945L482.727 48.0742L482.715 48.8008C483.684 48.6758 484.238 48.6133 484.379 48.6133C485.191 48.6133 485.723 48.6523 485.973 48.7305C486.449 48.8867 486.688 49.2539 486.688 49.832C486.688 50.1758 486.578 50.4609 486.359 50.6875C486.148 50.9062 485.875 51.0156 485.539 51.0156ZM496.859 51.0156C496.695 51.0156 496.5 51.0078 496.273 50.9922C496.055 50.9766 495.863 50.9688 495.699 50.9688C495.52 50.9688 494.988 51.0273 494.105 51.1445L494.328 58.0703L494.34 58.5859L494.352 59.1836C494.383 60.8945 493.973 61.75 493.121 61.75C492.809 61.75 492.535 61.6484 492.301 61.4453C492.074 61.2422 491.961 60.9883 491.961 60.6836C491.961 60.3867 491.973 59.9414 491.996 59.3477C492.02 58.7539 492.031 58.3086 492.031 58.0117L491.797 51.168C491.227 51.1445 490.359 51.0781 489.195 50.9688C488.5 50.875 488.152 50.4883 488.152 49.8086C488.152 49.4648 488.258 49.1797 488.469 48.9531C488.68 48.7266 488.949 48.6133 489.277 48.6133L491.738 48.8125C491.738 48.4141 491.719 47.8828 491.68 47.2188C491.648 46.5469 491.633 46.0625 491.633 45.7656C491.633 45.4375 491.746 45.168 491.973 44.957C492.199 44.7383 492.477 44.6289 492.805 44.6289C493.508 44.6289 493.918 45.2031 494.035 46.3516C494.059 46.6406 494.07 46.9883 494.07 47.3945L494.047 48.0742L494.035 48.8008C495.004 48.6758 495.559 48.6133 495.699 48.6133C496.512 48.6133 497.043 48.6523 497.293 48.7305C497.77 48.8867 498.008 49.2539 498.008 49.832C498.008 50.1758 497.898 50.4609 497.68 50.6875C497.469 50.9062 497.195 51.0156 496.859 51.0156ZM502.578 46.1641C502.203 46.1641 501.879 46.0312 501.605 45.7656C501.332 45.5 501.195 45.1797 501.195 44.8047C501.195 44.4297 501.332 44.1094 501.605 43.8438C501.879 43.5781 502.203 43.4453 502.578 43.4453C502.953 43.4453 503.273 43.5781 503.539 43.8438C503.812 44.1094 503.949 44.4297 503.949 44.8047C503.949 45.1797 503.812 45.5 503.539 45.7656C503.273 46.0312 502.953 46.1641 502.578 46.1641ZM503.105 55.6797C503.105 56.1484 503.117 56.8516 503.141 57.7891C503.172 58.7188 503.188 59.418 503.188 59.8867C503.188 60.2305 503.082 60.5117 502.871 60.7305C502.66 60.9492 502.383 61.0586 502.039 61.0586C501.703 61.0586 501.426 60.9492 501.207 60.7305C500.996 60.5117 500.891 60.2305 500.891 59.8867C500.891 59.418 500.875 58.7188 500.844 57.7891C500.82 56.8516 500.809 56.1484 500.809 55.6797C500.809 54.9453 500.848 54.0312 500.926 52.9375C501.004 51.8359 501.043 50.918 501.043 50.1836C501.043 49.832 501.148 49.5469 501.359 49.3281C501.578 49.1094 501.855 49 502.191 49C502.527 49 502.801 49.1094 503.012 49.3281C503.23 49.5469 503.34 49.832 503.34 50.1836C503.34 50.918 503.301 51.8359 503.223 52.9375C503.145 54.0312 503.105 54.9453 503.105 55.6797Z" fill="#FF603E"/>
</g>
<g id="vegetables-salad-svgrepo-com 1" clip-path="url(#clip0_159_312)">
<path id="Vector 35" d="M524 263.5H516.5L528 282H535.5L524 263.5Z" fill="white" stroke="black"/>
<g id="Group">
<g id="Group_2">
<g id="Group_3">
<path id="Vector 37" d="M497.5 235L497 238L505.5 238.5H513L513.5 237.5L512.5 235.5L511.5 234L510.5 232L509 231L508 230.5L506 230L503 230.5L501 231L499 233L497.5 235Z" fill="#D8FFD6" stroke="black"/>
<g id="Vector 36">
<path d="M527.5 222L514 237.5H529L537 231V226.5L535 222.5L531.5 221L527.5 222Z" fill="#FFAB5E"/>
<path d="M514 237.5L527.5 222L531.5 221L535 222.5L537 226.5V231L529 237.5H513" stroke="black"/>
</g>
<path id="Vector 34" d="M516.5 263.5H509.5L498 282.5H504.5L516.5 263.5Z" fill="white" stroke="black"/>
<path id="Vector 29" d="M483.5 247V239.5H549V247H483.5Z" fill="white" stroke="black"/>
<path id="Vector 30" d="M484 255.5V248H549.5V255.5H484Z" fill="white" stroke="black"/>
<path id="Vector 31" d="M483 238V231H492V238H483Z" fill="white" stroke="black"/>
<path id="Vector 32" d="M540 239V232H549V239H540Z" fill="white" stroke="black"/>
<path id="Vector 33" d="M494 263V256H538V263H494Z" fill="white" stroke="black"/>
<path id="Vector" d="M486.976 241.988C486.516 242.447 486.516 243.137 486.976 243.596C487.435 244.056 488.125 244.056 488.584 243.596C489.044 243.137 489.044 242.447 488.584 241.988C488.125 241.528 487.435 241.528 486.976 241.988Z" fill="black"/>
<path id="Vector_2" d="M488.584 252.787C489.044 252.327 489.044 251.638 488.584 251.178C488.125 250.719 487.435 250.719 486.976 251.178C486.516 251.638 486.516 252.327 486.976 252.787C487.435 253.246 488.125 253.246 488.584 252.787Z" fill="black"/>
<path id="Vector_3" d="M546.024 252.787C546.484 252.327 546.484 251.638 546.024 251.178C545.565 250.719 544.876 250.719 544.416 251.178C543.956 251.638 543.956 252.327 544.416 252.787C544.876 253.246 545.565 253.246 546.024 252.787Z" fill="black"/>
<path id="Vector_4" d="M544.416 241.988C543.956 242.447 543.956 243.137 544.416 243.596C544.875 244.056 545.565 244.056 546.024 243.596C546.484 243.137 546.484 242.447 546.024 241.988C545.565 241.528 544.876 241.528 544.416 241.988Z" fill="black"/>
<path id="Vector_5" d="M549.815 230.155H540.625C539.935 230.155 539.476 230.615 539.476 231.304V237.048H531.507L535.915 233.027C537.523 231.649 538.442 229.696 538.442 227.513C538.442 226.231 538.132 224.948 537.541 223.803L544.531 220.85C545.105 220.62 545.335 219.931 545.105 219.356C544.875 218.782 544.186 218.552 543.612 218.782L539.036 220.715L542.578 217.174C543.037 216.714 543.037 216.025 542.578 215.565C542.118 215.106 541.429 215.106 540.969 215.565L537.038 219.496L538.327 215.565C538.557 214.876 538.212 214.301 537.638 214.072C536.949 213.842 536.374 214.187 536.144 214.761L534.261 220.505C533.107 219.902 531.811 219.586 530.515 219.586C528.447 219.701 526.494 220.505 525.001 222.113L522.102 225.25C522.072 225.275 522.042 225.301 522.014 225.33C521.963 225.381 521.919 225.435 521.879 225.491L513.463 234.597C512.206 231.669 509.468 229.515 506.205 229.087C506.391 226.886 507.11 225.659 507.31 225.56C507.999 225.56 508.458 225.1 508.458 224.411C508.458 223.722 507.999 223.262 507.31 223.262C505.963 223.262 505.046 224.372 504.499 225.932C503.774 225.108 502.797 224.411 501.566 224.411C500.876 224.411 500.417 224.87 500.417 225.56C500.417 226.249 500.876 226.708 501.566 226.708C502.471 226.708 503.377 228.119 503.819 229.086C499.699 229.627 496.417 232.922 495.897 237.048H493.524V231.303C493.524 230.614 493.065 230.155 492.375 230.155H483.185C482.496 230.155 482.036 230.614 482.036 231.303V238.196V247.387V256.577C482.036 257.266 482.496 257.726 483.185 257.726H493.524V263.47C493.524 264.159 493.984 264.619 494.673 264.619H507.496L497.085 281.276C496.856 281.621 496.856 282.08 497.085 282.425C497.315 282.77 497.66 282.999 498.119 282.999H505.012C505.357 282.999 505.816 282.77 505.931 282.425L516.5 265.515L527.069 282.425C527.184 282.77 527.644 282.999 527.988 282.999H534.881C535.34 282.999 535.685 282.77 535.915 282.425C536.145 282.08 536.145 281.621 535.915 281.276L525.504 264.619H538.327C539.017 264.619 539.476 264.159 539.476 263.47V257.726H549.815C550.505 257.726 550.964 257.266 550.964 256.577V247.387V238.196V231.303C550.964 230.615 550.504 230.155 549.815 230.155ZM484.334 239.346H492.375H496.97H511.905H513.053H528.792H540.625H548.666V246.238H484.334V239.346ZM541.774 232.453H548.666V237.048H541.774V232.453ZM522.883 227.807L524.886 229.81C525.116 230.04 525.346 230.155 525.69 230.155C526.035 230.155 526.265 230.04 526.495 229.81C526.954 229.351 526.954 228.662 526.495 228.202L524.42 226.127L526.724 223.607C527.758 222.573 529.137 221.884 530.63 221.884C532.124 221.884 533.617 222.458 534.651 223.492C534.738 223.589 534.82 223.687 534.901 223.787C534.959 223.96 535.068 224.096 535.207 224.197C535.888 225.189 536.259 226.314 536.259 227.513C536.259 229.006 535.685 230.385 534.536 231.419L530.2 235.354L528.792 233.946C528.333 233.487 527.643 233.487 527.184 233.946C526.724 234.406 526.724 235.095 527.184 235.555L528.513 236.884L528.333 237.048H514.432L522.883 227.807ZM505.012 231.304C508.271 231.304 510.913 233.565 511.676 236.531L511.198 237.048H498.234C498.809 233.831 501.566 231.304 505.012 231.304ZM484.334 232.453H491.226V237.048H484.334V232.453ZM504.323 280.702H500.187L510.296 264.619H514.432L504.323 280.702ZM532.813 280.702H528.677L518.568 264.619H522.704L532.813 280.702ZM537.178 262.322H523.508H516.615H516.385H509.492H495.822V257.726H537.178V262.322ZM548.666 255.429H538.327H494.673H484.334V248.536H548.666V255.429Z" fill="black"/>
</g>
</g>
</g>
</g>
<g id="tomato-svgrepo-com 1" clip-path="url(#clip1_159_312)">
<g id="Group_4">
<path id="Vector_6" d="M81.2889 132.093L81.2853 132.09C81.2701 132.08 81.2514 132.074 81.2362 132.065C81.2755 131.527 81.0385 131.008 80.5646 130.705C78.2629 129.23 73.8098 127.076 69.3987 128.843V125.491C69.3987 124.118 68.4034 123 67.1802 123H65.1923C63.9682 123 62.9729 124.118 62.9729 125.491V129.162C60.9842 128.808 56.6518 128.457 52.4884 130.944C51.8571 131.32 51.5978 132.066 51.858 132.758C51.8839 132.828 51.9322 132.881 51.9671 132.944C51.8759 132.969 51.7811 132.989 51.6908 133.013C51.4797 133.07 51.2776 133.174 51.1024 133.318C46.1771 137.416 43.3523 143.259 43.3523 149.347C43.3523 161.286 53.9602 170.999 67.0004 170.999C80.0406 170.999 90.6486 161.286 90.6486 149.347C90.6486 142.517 87.2372 136.228 81.2889 132.093ZM62.9694 130.983C63.4084 131.076 63.8609 130.965 64.2096 130.679C64.561 130.394 64.7613 129.969 64.7613 129.516V125.491C64.7613 125.096 64.9938 124.788 65.1923 124.788H67.1802C67.3796 124.788 67.6103 125.096 67.6103 125.491V129.291C67.6103 129.8 67.866 130.27 68.2952 130.545C68.7253 130.823 69.261 130.861 69.7277 130.646C72.9961 129.152 76.4531 130.424 78.6644 131.651C76.5791 131.625 74.8819 131.79 73.5818 132.11C72.9934 132.254 72.5561 132.733 72.4676 133.332C72.3773 133.944 72.6661 134.542 73.2017 134.859C74.5019 135.623 75.3532 136.482 75.9183 137.325C76.3252 137.932 76.5872 138.531 76.741 139.081C74.7818 137.477 72.5847 136.888 71.0789 136.677C70.5772 136.606 70.1516 136.578 69.8377 136.568C69.4264 136.554 69.0365 136.705 68.7414 136.995C68.449 137.282 68.2845 137.684 68.2908 138.096C68.3623 142.689 66.7751 145.769 65.8523 147.163C64.9715 145.296 64.6996 141.279 64.7488 137.979C64.7613 137.217 64.1935 136.569 63.4263 136.469C63.1965 136.44 62.964 136.426 62.7306 136.426C62.6859 136.426 62.6403 136.434 62.5965 136.435C62.4749 136.438 62.3523 136.452 62.2298 136.461C62.0456 136.477 61.8614 136.494 61.6763 136.526C61.5565 136.545 61.4367 136.571 61.3169 136.597C61.1264 136.638 60.9368 136.685 60.7473 136.739C60.6319 136.773 60.5174 136.808 60.403 136.847C60.2072 136.912 60.0131 136.983 59.8191 137.06C59.71 137.104 59.6018 137.147 59.4936 137.195C59.2951 137.281 59.0983 137.373 58.9034 137.471C58.8015 137.521 58.6995 137.57 58.5985 137.623C58.3973 137.728 58.2006 137.84 58.0038 137.955C57.9117 138.008 57.8196 138.058 57.7284 138.114C57.5147 138.244 57.3072 138.378 57.1016 138.514C57.0345 138.558 56.9648 138.6 56.8986 138.645C56.6277 138.828 56.3639 139.015 56.109 139.204C56.4291 138.624 56.7707 138.107 57.1186 137.642C57.1373 137.617 57.1552 137.588 57.1731 137.564C57.5388 137.082 57.9099 136.661 58.2712 136.295C58.273 136.293 58.2748 136.291 58.2766 136.29C58.7532 135.807 59.2048 135.43 59.6027 135.132C59.6599 135.089 59.7207 135.04 59.7753 135C59.8074 134.977 59.8334 134.961 59.8647 134.939C59.9747 134.861 60.0838 134.785 60.1803 134.721C60.6489 134.415 60.9064 133.878 60.8483 133.319C60.792 132.759 60.4316 132.284 59.9085 132.077C59.8629 132.059 59.8066 132.05 59.7592 132.033C59.5624 131.964 59.3523 131.902 59.1305 131.847C58.9946 131.813 58.8569 131.781 58.712 131.754C58.6915 131.751 58.6736 131.744 58.6521 131.741C58.6387 131.738 58.6262 131.742 58.6128 131.74C57.5925 131.561 56.3889 131.534 54.9859 131.685C58.3588 130.286 61.6039 130.701 62.9694 130.983ZM66.9995 169.212C54.9466 169.212 45.1398 160.301 45.1398 149.348C45.1398 143.808 47.716 138.48 52.2031 134.728C54.1319 134.215 56.2074 133.804 58.3097 133.505C58.3803 133.518 58.4581 133.525 58.5261 133.539C58.5824 133.551 58.6405 133.561 58.6942 133.574C58.6137 133.632 58.5243 133.705 58.4393 133.77C58.3463 133.841 58.2578 133.906 58.1603 133.984C58.0754 134.053 57.9851 134.136 57.8974 134.21C57.7892 134.302 57.6846 134.387 57.5728 134.488C57.4673 134.584 57.3582 134.694 57.25 134.799C57.1508 134.895 57.0542 134.982 56.9531 135.085C56.7725 135.269 56.5901 135.472 56.4077 135.681C56.3773 135.716 56.3478 135.744 56.3174 135.779C55.4607 136.775 54.6005 138.046 53.9039 139.635C53.624 140.276 53.8109 140.991 54.3698 141.413C54.9278 141.836 55.6941 141.819 56.2333 141.376C57.7615 140.118 60.6167 138.065 62.9586 138.219C62.9354 140.735 63.0686 146.191 64.5637 148.52C64.832 148.937 65.2889 149.196 65.7825 149.21C65.7977 149.21 65.812 149.21 65.8272 149.21C66.3047 149.21 66.7545 148.982 67.038 148.593C67.9653 147.319 70.0899 143.804 70.0827 138.369C71.3892 138.455 74.0459 138.894 76.158 140.957C76.6194 141.406 77.29 141.513 77.8632 141.226C78.4427 140.938 78.7655 140.336 78.6841 139.691C78.6322 139.284 78.5401 138.837 78.3944 138.369C78.3881 138.348 78.3845 138.329 78.3783 138.308C78.2406 137.876 78.0438 137.424 77.7953 136.967C77.7613 136.904 77.7362 136.842 77.6996 136.779C77.5878 136.585 77.451 136.39 77.3151 136.196C77.2677 136.128 77.231 136.06 77.1809 135.992C77.0647 135.836 76.9234 135.682 76.7902 135.527C76.699 135.42 76.6212 135.313 76.5219 135.208C76.4057 135.084 76.2626 134.964 76.1338 134.842C75.9925 134.708 75.8638 134.572 75.7073 134.44C75.5723 134.326 75.4086 134.217 75.2611 134.105C75.0831 133.97 74.9186 133.832 74.7219 133.701C75.169 133.624 75.727 133.554 76.4066 133.505C76.4334 133.503 76.4611 133.502 76.4888 133.5C76.623 133.491 76.7633 133.483 76.9064 133.476C76.9833 133.472 77.0611 133.468 77.1407 133.465C77.2516 133.46 77.3634 133.456 77.4796 133.452C77.6209 133.448 77.7666 133.445 77.916 133.443C77.9848 133.443 78.0528 133.441 78.1234 133.44C78.3962 133.437 78.685 133.439 78.9846 133.443L79.3056 133.472C79.5703 133.508 79.8358 133.539 80.1014 133.571L80.3232 133.597C85.7492 137.393 88.8601 143.129 88.8601 149.345C88.8601 160.301 79.0534 169.212 66.9995 169.212Z" fill="black"/>
<path id="Vector_7" d="M48.7694 150.46C48.6979 149.972 48.2517 149.628 47.7545 149.705C47.2663 149.777 46.9282 150.231 46.9998 150.72C47.1956 152.051 47.6338 153.299 48.3026 154.428C48.4699 154.709 48.7676 154.866 49.0726 154.866C49.2272 154.866 49.3846 154.826 49.5277 154.741C49.9533 154.489 50.0928 153.939 49.8416 153.516C49.2988 152.602 48.9277 151.545 48.7694 150.46Z" fill="black"/>
<path id="Vector_8" d="M47.9342 147.748C47.9548 147.75 47.9763 147.751 47.9968 147.751C48.4627 147.751 48.8553 147.39 48.8875 146.918C48.959 145.9 49.1674 144.912 49.508 143.981C49.6771 143.516 49.4392 143.002 48.9751 142.833C48.5083 142.665 47.9968 142.902 47.8278 143.366C47.4308 144.456 47.1867 145.608 47.1026 146.795C47.0696 147.287 47.4406 147.714 47.9342 147.748Z" fill="black"/>
</g>
</g>
<g id="meat-svgrepo-com 1">
<g id="SVGRepo_iconCarrier">
<path id="Vector_9" fill-rule="evenodd" clip-rule="evenodd" d="M533.721 102.558C533.603 102.284 533.481 102.143 533.087 101.749C532.184 100.846 530.72 100.846 529.817 101.749C528.914 102.652 528.914 104.116 529.817 105.019L531.452 106.655L526.38 111.726C527.019 112.148 527.622 112.636 528.181 113.195C528.741 113.755 529.229 114.358 529.651 114.996L534.722 109.925L536.358 111.56C537.261 112.463 538.725 112.463 539.628 111.56C540.531 110.657 540.531 109.193 539.628 108.29C539.234 107.896 539.093 107.773 538.819 107.656C538.499 107.518 537.822 107.332 536.358 107.332H534.045V105.019C534.045 103.555 533.858 102.878 533.721 102.558ZM531.55 119.638C532.197 122.631 532.022 125.896 531.407 128.914C530.277 134.451 527.509 140.03 524.168 143.372C517.252 150.288 505.868 149.748 498.748 142.629C491.629 135.509 491.089 124.125 498.005 117.209C501.346 113.868 506.926 111.1 512.463 109.97C515.481 109.354 518.746 109.179 521.739 109.826L525.19 106.375C523.958 103.797 524.411 100.615 526.546 98.4786C529.256 95.7693 533.648 95.7693 536.358 98.4786C536.368 98.4895 536.379 98.5006 536.391 98.5118C536.817 98.9375 537.489 99.609 537.972 100.736C538.235 101.349 538.421 102.042 538.534 102.843C539.335 102.956 540.027 103.142 540.641 103.405C541.768 103.888 542.439 104.56 542.865 104.986C542.876 104.997 542.887 105.008 542.898 105.019C545.608 107.729 545.608 112.121 542.898 114.83C540.762 116.966 537.58 117.418 535.001 116.186L531.55 119.638ZM513.388 114.502C508.539 115.491 503.845 117.909 501.275 120.479C496.369 125.385 496.495 133.834 502.019 139.358C507.542 144.882 515.991 145.008 520.898 140.102C523.467 137.532 525.886 132.837 526.875 127.989C527.882 123.055 527.258 118.812 524.911 116.466C522.564 114.119 518.322 113.495 513.388 114.502Z" fill="black"/>
</g>
</g>
<g id="fish-svgrepo-com 1" clip-path="url(#clip2_159_312)">
<g id="Group_5">
<path id="Vector_10" d="M154.651 67.0385H154.649C154.649 67.0385 154.647 67.0378 154.647 67.0378L154.651 67.0385Z" fill="black"/>
<path id="Vector_11" d="M133.636 86.1549C133.395 85.5352 132.908 84.2565 132.414 82.7855C132.069 81.7582 131.722 80.6442 131.457 79.5981C131.194 78.5464 131.004 77.5862 131 76.7529C131.002 76.4281 131.026 76.1191 131.134 75.7816C131.19 75.6129 131.269 75.4333 131.404 75.2471C131.538 75.0626 131.74 74.8671 132.012 74.7252C132.394 74.525 132.8 74.4626 133.143 74.4634C133.682 74.4681 134.127 74.5903 134.573 74.7472C135.346 75.0279 136.128 75.4567 136.95 75.9723C138.175 76.7465 139.461 77.7209 140.598 78.6741C141.334 79.2921 141.987 79.8873 142.535 80.4314C146.599 78.3516 150.234 76.8017 151.931 76.1048C151.868 75.8131 151.796 75.4726 151.725 75.0909C151.51 73.9431 151.291 72.4783 151.289 71.116C151.295 70.2386 151.366 69.4108 151.689 68.6374C151.856 68.2527 152.097 67.8616 152.517 67.532C152.929 67.1994 153.55 66.9873 154.139 66.996C154.311 66.996 154.482 67.0109 154.649 67.0385C155.601 67.1929 156.588 67.5359 157.663 67.9963C160.8 69.3547 164.677 71.8049 168.102 74.1463C172.032 75.1018 176.274 76.7141 179.768 78.6905C181.557 79.7036 183.149 80.8104 184.403 82.0032C185.651 83.196 186.586 84.4834 186.929 85.9096L187 86.2109L186.898 86.5057C186.055 88.9347 184.253 90.9829 181.956 92.7078C178.502 95.2967 173.897 97.2196 169.195 98.7009C164.494 100.178 159.692 101.199 155.865 101.889C155.448 101.964 155.053 102.004 154.672 102.004C154.125 102.004 153.598 101.92 153.122 101.727C152.401 101.443 151.88 100.9 151.625 100.361C151.36 99.8172 151.29 99.2748 151.287 98.7584C151.291 97.8186 151.533 96.9263 151.76 96.2357C151.771 96.2034 151.781 96.1789 151.792 96.1482C150.044 95.4269 146.498 93.9062 142.538 91.88C142.194 92.2213 141.806 92.5833 141.38 92.9624C140.179 94.026 138.711 95.1856 137.301 96.1112C136.594 96.574 135.904 96.9783 135.239 97.2874C134.904 97.4418 134.576 97.5728 134.237 97.673C133.897 97.7714 133.547 97.8448 133.143 97.8471C132.8 97.8471 132.396 97.7857 132.014 97.5862L132.048 97.6043L132.012 97.5855C131.739 97.4427 131.538 97.248 131.404 97.0628C131.202 96.7821 131.121 96.5236 131.067 96.2808C131.017 96.0363 131 95.8005 131 95.5578C131.004 94.7244 131.194 93.7635 131.457 92.7118C132.099 90.185 133.224 87.2145 133.636 86.1549ZM135.432 94.309C136.5 93.627 137.693 92.722 138.732 91.8469C139.769 90.975 140.666 90.1149 141.118 89.5851L141.867 88.7116L142.937 89.2738C145.865 90.811 148.658 92.0969 150.712 92.9956C151.739 93.4457 152.582 93.7981 153.167 94.0378C153.459 94.1584 153.686 94.2498 153.84 94.3105C153.994 94.3721 154.069 94.4012 154.069 94.4012L155.303 94.8813L154.785 95.9723L154.781 95.9819C154.748 96.052 154.558 96.4746 154.382 97.0217C154.205 97.5657 154.052 98.2436 154.055 98.7585C154.055 98.958 154.077 99.1306 154.111 99.2536C154.166 99.4452 154.224 99.4925 154.243 99.5067C154.265 99.5176 154.322 99.5769 154.672 99.5823C154.831 99.5823 155.042 99.5649 155.307 99.5176C159.069 98.8405 163.789 97.8306 168.328 96.399C167.692 95.8865 167.141 95.3126 166.687 94.6842C165.601 93.1808 164.992 91.4205 164.643 89.6095C164.295 87.7971 164.209 85.9263 164.209 84.1871C164.209 83.741 164.622 83.3798 165.131 83.3798C165.641 83.3798 166.054 83.7409 166.054 84.1871C166.052 86.4419 166.21 88.8692 166.867 90.971C167.194 92.0219 167.644 92.99 168.246 93.8209C168.797 94.5809 169.478 95.2218 170.317 95.7374C171.116 95.4583 171.907 95.1674 172.678 94.86C175.529 93.7247 178.132 92.3899 180.153 90.87C182.063 89.436 183.431 87.8537 184.121 86.1217C183.87 85.3742 183.291 84.5197 182.364 83.6414C180.812 82.1578 178.388 80.6551 175.657 79.3874C172.926 78.1166 169.886 77.0681 167.102 76.413L166.829 76.3491L166.607 76.1961C164.34 74.6383 161.844 73.0213 159.582 71.7536C158.451 71.1198 157.379 70.5735 156.438 70.1683C155.579 69.7946 154.831 69.5525 154.299 69.4509C154.249 69.5565 154.189 69.7283 154.148 69.9515C154.088 70.2661 154.057 70.6713 154.057 71.1159C154.056 72.248 154.253 73.6261 154.456 74.6983C154.557 75.2352 154.658 75.698 154.733 76.0243C154.771 76.1875 154.802 76.3168 154.824 76.4043L154.849 76.5028L154.856 76.5328L155.11 77.504L154.069 77.9084C154.069 77.9092 153.994 77.9384 153.84 77.9998C152.766 78.4272 148.063 80.3452 142.937 83.0367L141.867 83.5989L141.118 82.7254C140.769 82.317 140.15 81.7044 139.41 81.0493C138.299 80.0639 136.9 78.9617 135.641 78.1371C135.014 77.7247 134.419 77.3826 133.944 77.1634C133.888 77.1374 133.84 77.1184 133.788 77.0964C133.831 77.6009 133.962 78.3049 134.159 79.0736C134.526 80.5227 135.09 82.205 135.56 83.5129C135.796 84.1673 136.008 84.7303 136.161 85.1274C136.237 85.3261 136.298 85.4838 136.341 85.591C136.383 85.6982 136.405 85.7527 136.405 85.7533L136.566 86.1546L136.405 86.5559C136.405 86.5567 136.365 86.6552 136.292 86.842C136.037 87.494 135.394 89.1771 134.821 90.9636C134.534 91.856 134.265 92.7745 134.072 93.5921C133.923 94.2172 133.823 94.788 133.785 95.2138C134.229 95.024 134.808 94.7095 135.432 94.309Z" fill="black"/>
<path id="Vector_12" d="M176.193 82.8658C177.377 82.8658 178.336 83.7054 178.336 84.7406C178.336 85.7772 177.377 86.6169 176.193 86.6169C175.009 86.6169 174.05 85.7772 174.05 84.7406C174.05 83.7054 175.009 82.8658 176.193 82.8658Z" fill="black"/>
</g>
</g>
<g id="Group 16">
<path id="Vector 2" d="M301.108 172.739C321.674 174.992 325.157 134.463 321.01 113.494L271.254 117.343C267.273 120.347 270.685 150.799 277.058 165.227C277.888 167.105 280.541 170.485 301.108 172.739Z" fill="white" stroke="black" stroke-width="2"/>
<path id="Ellipse 5" d="M293.547 134.11C293.547 139.492 289.645 143.67 285.047 143.67C280.45 143.67 276.547 139.492 276.547 134.11C276.547 128.729 280.45 124.551 285.047 124.551C289.645 124.551 293.547 128.729 293.547 134.11Z" fill="white" stroke="black" stroke-width="2"/>
<path id="Ellipse 6" d="M318.547 134.11C318.547 139.395 314.289 143.67 309.047 143.67C303.806 143.67 299.547 139.395 299.547 134.11C299.547 128.825 303.806 124.551 309.047 124.551C314.289 124.551 318.547 128.825 318.547 134.11Z" fill="white" stroke="black" stroke-width="2"/>
<line id="Line 22" x1="293.547" y1="130.596" x2="300.547" y2="130.596" stroke="black" stroke-width="2"/>
<path id="Vector 1" d="M297.547 138.636C298.507 140.712 299.666 142.789 300.274 145.124C300.415 145.666 300.679 146.663 300.469 147.236C300.211 147.938 299.591 148.269 299.176 148.693" stroke="black" stroke-width="2" stroke-linecap="round"/>
<path id="Vector 3" d="M283.547 120.534C279.147 123.349 273.547 121.539 271.547 117.014L268.047 124.556L271 142.304C271 142.304 268.047 141.15 263.547 136.122C259.047 131.093 258.025 122.293 257.047 111.482C256.002 99.9171 272.547 98.4086 278.047 97.4029C283.547 96.3973 305.547 95.3916 315.047 99.9171C324.547 104.443 324.047 108.465 324.547 112.991C325.047 117.517 320.047 117.014 318.547 117.014C317.347 117.014 315.047 114.332 314.047 112.991C314.047 114.332 312.947 117.416 308.547 119.025C303.047 121.036 299.047 118.522 296.547 117.014L291.547 113.997C291.547 113.997 287.947 117.718 283.547 120.534Z" fill="black" stroke="black" stroke-width="2"/>
<path id="Vector 4" d="M293 158.897C297.5 161.914 300 161.412 303 160.111" stroke="black" stroke-width="2" stroke-linecap="round"/>
<path id="Vector 5" d="M266.087 130.056C267.392 129.035 268.673 130.58 269.565 132.609L270 141.801C269.777 141.632 268.996 140.786 267.658 138.757C265.985 136.221 263.572 132.026 266.087 130.056Z" fill="white" stroke="black" stroke-width="2"/>
</g>
<g id="chef-hat-svgrepo-com 1" clip-path="url(#clip3_159_312)">
<path id="Vector 27" d="M323.5 94H258L254 92L249 87L247.5 81.5L249 71.5L255.5 64L263.5 61.5L267 62.5L272 64L278 59.5L289 55.5L299.5 57.5L304 60.5L308 65L310 63.5L314.5 62L322.5 63.5L328.5 66.5L332.5 72.5L333.5 77L332.5 83L330.5 88.5L323.5 94Z" fill="white" stroke="black"/>
<rect id="Rectangle 15" x="257.82" y="96.234" width="66.194" height="13.0525" fill="white"/>
<path id="Vector_13" d="M316.643 60.0969C313.868 60.0969 311.118 60.7525 308.62 62.0017C304.788 57.682 299.669 54.8998 294.102 54.0566C294.1 54.0564 294.099 54.0562 294.097 54.056C293.809 54.0124 293.519 53.9736 293.228 53.9404C293.22 53.9395 293.211 53.9383 293.202 53.9373C292.916 53.9051 292.63 53.8777 292.342 53.8556C292.307 53.8528 292.271 53.8511 292.235 53.8485C292 53.8315 291.763 53.8181 291.527 53.8081C291.457 53.8051 291.388 53.8021 291.318 53.7998C291.046 53.7903 290.774 53.784 290.5 53.784C290.226 53.784 289.954 53.7903 289.682 53.7996C289.612 53.8019 289.543 53.8049 289.473 53.8079C289.237 53.8179 289 53.8313 288.765 53.8483C288.729 53.8509 288.693 53.8526 288.658 53.8554C288.37 53.8775 288.084 53.9049 287.798 53.9371C287.789 53.9381 287.78 53.9393 287.772 53.9402C287.481 53.9734 287.191 54.0122 286.903 54.0558C286.901 54.056 286.9 54.0562 286.898 54.0564C281.331 54.8996 276.212 57.6816 272.38 62.0015C269.882 60.7525 267.132 60.0969 264.357 60.0969C254.235 60.0969 246 68.5486 246 78.9371C246 85.6951 249.572 91.9252 255.227 95.2619V107.345C255.227 109.902 257.253 111.981 259.744 111.981H321.256C323.747 111.981 325.773 109.902 325.773 107.345V95.2619C331.428 91.9252 335 85.6951 335 78.9371C335 68.5486 326.765 60.0969 316.643 60.0969ZM296.651 109.022H284.349C282.6 109.022 281.177 107.562 281.177 105.767C281.177 103.972 282.6 102.512 284.349 102.512H296.651C298.4 102.512 299.823 103.972 299.823 105.767C299.823 107.562 298.4 109.022 296.651 109.022ZM322.89 107.345C322.89 108.27 322.157 109.022 321.256 109.022H301.806C302.376 108.075 302.706 106.96 302.706 105.767C302.706 102.341 299.99 99.5528 296.651 99.5528H284.349C281.01 99.5528 278.294 102.341 278.294 105.767C278.294 106.96 278.624 108.075 279.194 109.022H259.744C258.843 109.022 258.11 108.27 258.11 107.345V96.199H322.89V107.345ZM323.333 93.2398H310.662C311.218 92.4166 311.726 91.5604 312.181 90.676C312.553 89.9536 312.284 89.0583 311.58 88.6766C310.876 88.2946 310.004 88.5708 309.632 89.2931C308.909 90.6975 308.037 92.0222 307.036 93.2396H273.964C272.963 92.0222 272.091 90.6975 271.368 89.2931C270.996 88.5706 270.124 88.2942 269.42 88.6764C268.716 89.0583 268.447 89.9534 268.819 90.6758C269.275 91.5602 269.783 92.4164 270.338 93.2396H257.667C252.322 90.6012 248.883 85.0226 248.883 78.9371C248.883 70.1803 255.825 63.0561 264.357 63.0561C266.477 63.0561 268.58 63.5124 270.523 64.3826C269.562 65.7723 268.727 67.2728 268.044 68.8749C267.725 69.6235 268.058 70.4959 268.788 70.8234C269.517 71.1509 270.367 70.809 270.686 70.0605C273.702 62.9823 280.032 58.0957 287.322 56.9839C287.323 56.9839 287.324 56.9837 287.325 56.9835C287.826 56.9071 288.331 56.8497 288.84 56.8097C288.894 56.8053 288.949 56.8018 289.003 56.798C289.193 56.7844 289.384 56.7738 289.575 56.7653C289.641 56.7625 289.706 56.7592 289.772 56.757C290.014 56.7487 290.257 56.7432 290.5 56.7432C290.744 56.7432 290.986 56.7487 291.228 56.757C291.294 56.7592 291.36 56.7625 291.425 56.7653C291.616 56.7738 291.807 56.7844 291.997 56.798C292.052 56.802 292.106 56.8053 292.161 56.8097C292.67 56.8497 293.175 56.9071 293.675 56.9835C293.676 56.9837 293.677 56.9839 293.678 56.9839C300.968 58.0955 307.299 62.9823 310.314 70.0605C310.551 70.6163 311.08 70.9477 311.636 70.9477C311.829 70.9477 312.025 70.9076 312.213 70.8234C312.942 70.4959 313.275 69.6235 312.956 68.8749C312.273 67.2728 311.438 65.7723 310.477 64.3826C312.421 63.5124 314.523 63.0561 316.643 63.0561C325.175 63.0561 332.117 70.1803 332.117 78.9371C332.117 85.0226 328.678 90.6012 323.333 93.2398Z" fill="black"/>
</g>
</g>
<defs>
<clipPath id="clip0_159_312">
<rect width="69" height="69" fill="white" transform="translate(482 214)"/>
</clipPath>
<clipPath id="clip1_159_312">
<rect width="48" height="48" fill="white" transform="translate(43 123)"/>
</clipPath>
<clipPath id="clip2_159_312">
<rect width="56" height="49" fill="white" transform="matrix(-1 0 0 1 187 60)"/>
</clipPath>
<clipPath id="clip3_159_312">
<rect width="89" height="87" fill="white" transform="translate(246 38)"/>
</clipPath>
</defs>
</svg>
