<svg width="592" height="529" viewBox="0 0 592 529" fill="none" xmlns="http://www.w3.org/2000/svg">
<g id="Group 13">
<path id="Vector 26" d="M151 275L136 273V277.5H151.5L151 275Z" fill="white" stroke="black"/>
<path id="Vector 24" d="M447.5 247.5V198L546.5 191V236.5L447.5 247.5Z" fill="white" stroke="black"/>
<g id="Vector 23">
<path d="M281.646 178.439C283.274 177.394 284.825 172.701 285.5 170C291.333 169.833 298.5 172.5 302.5 172.5C304.5 172.5 306.833 178.667 309.5 181L294 182C290.322 180.851 284.345 179.051 281.646 178.439C281.265 178.683 280.879 178.728 280.5 178.5C279.879 178.128 280.431 178.163 281.646 178.439Z" fill="white"/>
<path d="M285.5 170C284.667 173.333 282.5 179.7 280.5 178.5C278.5 177.3 288.667 180.333 294 182L309.5 181C306.833 178.667 304.5 172.5 302.5 172.5C298.5 172.5 291.333 169.833 285.5 170Z" stroke="black" stroke-linecap="round"/>
</g>
<path id="Vector 2" d="M301.108 171.763C321.674 174.004 325.157 133.704 321.01 112.853L271.254 116.68C267.273 119.667 270.685 149.947 277.058 164.294C277.888 166.161 280.541 169.522 301.108 171.763Z" fill="white" stroke="black" stroke-width="2"/>
<rect id="Rectangle 14" x="217.5" y="182.5" width="155" height="212" rx="28.5" fill="#D9D9D9" stroke="black" stroke-width="3"/>
<g id="hand_left">
<g id="XMLID_4441_">
<g id="XMLID_4442_">
<path d="M172.028 253.739L171.22 256.347C170.805 257.658 170.072 258.915 169.066 260.032L162.631 266.932C162.085 267.515 161.21 267.705 160.614 267.378C160.3 267.203 160.07 266.977 159.903 266.697C159.482 265.993 159.566 265.016 160.198 264.168L164.155 259.01C163.096 258.702 161.832 258.912 160.767 259.548L144.24 269.428C143.077 270.123 141.69 269.936 141.135 269.008C140.581 268.08 141.072 266.769 142.235 266.074L153.449 259.37C152.285 260.065 150.898 259.878 150.344 258.95C149.789 258.022 150.28 256.711 151.444 256.016L152.145 255.597C150.981 256.292 149.594 256.105 149.039 255.177C148.485 254.249 148.976 252.938 150.139 252.242L151.541 251.405C150.378 252.1 148.991 251.912 148.436 250.984C147.881 250.056 148.372 248.746 149.536 248.05L160.876 241.271C161.822 240.706 162.879 240.38 163.909 240.327" fill="white"/>
<path d="M172.028 253.739L171.22 256.347C170.805 257.658 170.072 258.915 169.066 260.032L162.631 266.932C162.085 267.515 161.21 267.705 160.614 267.378C160.3 267.203 160.07 266.977 159.903 266.697C159.482 265.993 159.566 265.016 160.198 264.168L164.155 259.01C163.096 258.702 161.832 258.912 160.767 259.548L144.24 269.428C143.077 270.123 141.69 269.936 141.135 269.008C140.581 268.08 141.072 266.769 142.235 266.074L153.449 259.37C152.285 260.065 150.898 259.878 150.344 258.95C149.789 258.022 150.28 256.711 151.444 256.016L152.145 255.597C150.981 256.292 149.594 256.105 149.039 255.177C148.485 254.249 148.976 252.938 150.139 252.242L151.541 251.405C150.378 252.1 148.991 251.912 148.436 250.984C147.881 250.056 148.372 248.746 149.536 248.05L160.876 241.271C161.822 240.706 162.879 240.38 163.909 240.327" stroke="black" stroke-width="2" stroke-miterlimit="10" stroke-linecap="round" stroke-linejoin="round"/>
</g>
</g>
<path id="Vector 15" d="M171.762 254.454C172.186 253.095 172.614 249.288 171.281 247.745" stroke="black" stroke-width="2" stroke-linecap="round"/>
</g>
<path id="Vector 13" d="M238.786 288.5C235.586 284.1 235.786 227.667 236.286 200L264.5 241.5L287.5 293.5L238.786 288.5Z" fill="white" stroke="black" stroke-width="2" stroke-linecap="round"/>
<path id="Vector 14" d="M343 293C351.039 288.575 350.537 231.823 349.281 204H330V292L343 293Z" fill="white" stroke="black" stroke-width="2" stroke-linecap="round"/>
<path id="Vector 9" d="M239.772 381.617C241.171 394.308 254.173 391.829 260 388V293H239.772C239.189 317.251 238.374 368.926 239.772 381.617Z" fill="white" stroke="black" stroke-width="3"/>
<path id="Rectangle 6" d="M254.5 268C254.5 257.783 262.783 249.5 273 249.5H279C289.217 249.5 297.5 257.783 297.5 268V389.5H254.5V268Z" fill="white" stroke="black" stroke-width="3"/>
<path id="Rectangle 7" d="M300.5 268C300.5 257.783 308.783 249.5 319 249.5H325C335.217 249.5 343.5 257.783 343.5 268V389.5H300.5V268Z" fill="white" stroke="black" stroke-width="3"/>
<rect id="Rectangle 11" x="246.5" y="266.5" width="126" height="10" fill="#D9D9D9" stroke="black" stroke-width="3"/>
<rect id="Rectangle 1" x="3" y="281" width="586" height="21" fill="white" stroke="black" stroke-width="6"/>
<line id="Line 1" x1="3" y1="529.055" x2="3" y2="302" stroke="black" stroke-width="6"/>
<line id="Line 2" x1="589" y1="529.055" x2="589" y2="302" stroke="black" stroke-width="6"/>
<path id="Rectangle 2" d="M235 403C235 397.477 239.477 393 245 393H346C351.523 393 356 397.477 356 403V416H235V403Z" fill="#D9D9D9" stroke="black" stroke-width="4"/>
<path id="Rectangle 3" d="M293 418H299V500C299 501.657 297.657 503 296 503C294.343 503 293 501.657 293 500V418Z" fill="black"/>
<circle id="Ellipse 1" cx="227" cy="523" r="6" fill="black"/>
<circle id="Ellipse 3" cx="259.5" cy="524.5" r="4.5" fill="black"/>
<circle id="Ellipse 4" cx="332.5" cy="524.5" r="4.5" fill="black"/>
<circle id="Ellipse 2" cx="364" cy="523" r="6" fill="black"/>
<line id="Line 3" x1="296.455" y1="501.429" x2="230.455" y2="522.429" stroke="black" stroke-width="3"/>
<line id="Line 15" x1="296.723" y1="501.314" x2="256.723" y2="523.314" stroke="black" stroke-width="3"/>
<line id="Line 16" x1="335.278" y1="523.314" x2="295.277" y2="501.314" stroke="black" stroke-width="3"/>
<line id="Line 4" x1="361.545" y1="522.429" x2="295.545" y2="501.429" stroke="black" stroke-width="3"/>
<path id="Rectangle 4" d="M258 384.5C258 382.015 260.015 380 262.5 380H291.5C293.985 380 296 382.015 296 384.5V390H258V384.5Z" fill="#D9D9D9" stroke="black" stroke-width="2"/>
<path id="Rectangle 5" d="M304 384.5C304 382.015 306.015 380 308.5 380H337.5C339.985 380 342 382.015 342 384.5V390H304V384.5Z" fill="#D9D9D9" stroke="black" stroke-width="2"/>
<line id="Line 5" x1="263.5" y1="306" x2="263.5" y2="345" stroke="black" stroke-width="3"/>
<line id="Line 6" x1="263.5" y1="348" x2="263.5" y2="351" stroke="black" stroke-width="3"/>
<line id="Line 7" x1="296.5" y1="283" x2="296.5" y2="257" stroke="black" stroke-width="9"/>
<path id="Rectangle 9" d="M277 277C277 272.582 280.582 269 285 269H306C310.418 269 314 272.582 314 277V278H277V277Z" fill="black"/>
<path id="Rectangle 10" d="M480.822 282.689C480.184 277.495 483.877 272.767 489.071 272.13L510.995 269.438C513.975 269.072 516.688 271.191 517.054 274.171L517.546 278.18L480.822 282.689Z" fill="black"/>
<path id="Line 8" d="M447 248V197" stroke="black" stroke-width="4" stroke-linecap="round"/>
<path id="Line 9" d="M547 237V190" stroke="black" stroke-width="4" stroke-linecap="round"/>
<path id="Line 10" d="M447 197L547 190" stroke="black" stroke-width="4" stroke-linecap="round"/>
<path id="Line 14" d="M447 248L547 237" stroke="black" stroke-width="4" stroke-linecap="round"/>
<line id="Line 12" x1="498.017" y1="244" x2="498.017" y2="279" stroke="black" stroke-width="4"/>
<path id="Rectangle 13" d="M201.5 274C201.5 271.515 203.515 269.5 206 269.5H218C220.485 269.5 222.5 271.515 222.5 274V277.5H201.5V274Z" fill="#D9D9D9" stroke="black"/>
<line id="Line 13" x1="212.5" y1="270" x2="212.5" y2="274" stroke="black"/>
<g id="Group 2">
<path id="Line 20" d="M134.957 276.758L162 277" stroke="black" stroke-width="3" stroke-linecap="round"/>
<g id="Group 1">
<path id="Line 15_2" d="M135.454 276.698L129.157 229.102" stroke="black" stroke-width="3" stroke-linecap="round"/>
<path id="Line 17" d="M129.158 229.107L54.3834 231.938" stroke="black" stroke-width="3" stroke-linecap="round"/>
<path id="Line 18" d="M134.957 276.758L60.2851 276.549" stroke="black" stroke-width="3" stroke-linecap="round"/>
<path id="Line 16_2" d="M54.3834 231.938L60.2851 276.549" stroke="black" stroke-width="3" stroke-linecap="round"/>
<path id="Line 21" d="M135.2 272.186L162.093 276.484" stroke="black" stroke-width="2" stroke-linecap="round"/>
</g>
</g>
<path id="Ellipse 5" d="M293.547 133.353C293.547 138.696 289.65 142.853 285.047 142.853C280.445 142.853 276.547 138.696 276.547 133.353C276.547 128.01 280.445 123.853 285.047 123.853C289.65 123.853 293.547 128.01 293.547 133.353Z" fill="white" stroke="black" stroke-width="2"/>
<circle id="Ellipse 6" cx="309.047" cy="133.353" r="9.5" fill="white" stroke="black" stroke-width="2"/>
<line id="Line 22" x1="293.547" y1="129.853" x2="300.547" y2="129.853" stroke="black" stroke-width="2"/>
<path id="Vector 1" d="M297.547 137.853C298.507 139.917 299.666 141.983 300.274 144.305C300.415 144.843 300.679 145.835 300.469 146.405C300.211 147.103 299.591 147.432 299.176 147.853" stroke="black" stroke-width="2" stroke-linecap="round"/>
<path id="Vector 3" d="M283.547 119.853C279.147 122.653 273.547 120.853 271.547 116.353L268.047 123.853L271 141.5C271 141.5 268.047 140.353 263.547 135.353C259.047 130.353 258.025 121.602 257.047 110.853C256.002 99.3528 272.547 97.8528 278.047 96.8528C283.547 95.8528 305.547 94.8528 315.047 99.3528C324.547 103.853 324.047 107.853 324.547 112.353C325.047 116.853 320.047 116.353 318.547 116.353C317.347 116.353 315.047 113.686 314.047 112.353C314.047 113.686 312.947 116.753 308.547 118.353C303.047 120.353 299.047 117.853 296.547 116.353L291.547 113.353C291.547 113.353 287.947 117.053 283.547 119.853Z" fill="black" stroke="black" stroke-width="2"/>
<path id="Vector 4" d="M293 158C297.5 161 300 160.5 303 159.207" stroke="black" stroke-width="2" stroke-linecap="round"/>
<path id="Vector 5" d="M266.087 129.322C267.392 128.306 268.673 129.843 269.565 131.86L270 141C269.777 140.832 268.996 139.991 267.658 137.974C265.985 135.452 263.572 131.28 266.087 129.322Z" fill="white" stroke="black" stroke-width="2"/>
<path id="Vector 6" d="M285 169.5C284.667 172.333 283.4 177.2 279 178" stroke="black" stroke-width="2"/>
<path id="Vector 7" d="M304 172C305.286 175.501 309.886 182.345 314 181" stroke="black" stroke-width="2"/>
<path id="Vector 8" d="M302.376 184.163C291.483 184.516 259.5 169 254 172C248.5 174.442 236.9 178.693 234.5 184.163C232.1 189.633 221.833 209 217 218L355 193C354.019 191.085 351.614 186.637 349.848 184.163C347.64 181.07 331.029 174.43 329.24 174C323 172.5 315.992 183.721 302.376 184.163Z" fill="white" stroke="black" stroke-width="2"/>
<path id="Vector 10" d="M361 183.5C361.038 183.176 361.075 182.853 361.112 182.533" stroke="black" stroke-width="3"/>
<g id="hand_right">
<g id="Group 3">
<path id="Vector 11" d="M345.5 174.5C345.9 169.3 343.667 155 342 148L342.5 143L353 142L356 147L358.5 161L360 174.5L360.5 182L360 194.5L342.5 193.5C343.333 189.333 345.1 179.7 345.5 174.5Z" fill="white" stroke="black" stroke-width="2"/>
<line id="Line 23" x1="341.967" y1="150.501" x2="356.967" y2="149.501" stroke="black"/>
<circle id="Ellipse 7" cx="349.5" cy="152.5" r="3" fill="black" stroke="black"/>
<g id="XMLID_4441__2">
<g id="XMLID_4442__2">
<path d="M341.29 147.35L339.546 145.318C338.674 144.29 338.001 143.016 337.577 141.579L335.071 132.515C334.86 131.748 335.134 130.898 335.694 130.556C335.992 130.376 336.291 130.294 336.603 130.294C337.388 130.294 338.148 130.867 338.534 131.846L340.827 137.888C341.599 137.137 342.048 135.945 342.048 134.704V115.45C342.048 114.094 342.883 113 343.917 113C344.951 113 345.786 114.094 345.786 115.45V128.514C345.786 127.159 346.621 126.065 347.655 126.065C348.689 126.065 349.524 127.159 349.524 128.514V129.331C349.524 127.975 350.359 126.881 351.393 126.881C352.427 126.881 353.262 127.975 353.262 129.331V130.964C353.262 129.608 354.097 128.514 355.131 128.514C356.165 128.514 357 129.608 357 130.964V144.175C357 145.278 356.748 146.352 356.286 147.263" fill="white"/>
<path d="M341.29 147.35L339.546 145.318C338.674 144.29 338.001 143.016 337.577 141.579L335.071 132.515C334.86 131.748 335.134 130.898 335.694 130.556C335.992 130.376 336.291 130.294 336.603 130.294C337.388 130.294 338.148 130.867 338.534 131.846L340.827 137.888C341.599 137.137 342.048 135.945 342.048 134.704V115.45C342.048 114.094 342.883 113 343.917 113C344.951 113 345.786 114.094 345.786 115.45V128.514C345.786 127.159 346.621 126.065 347.655 126.065C348.689 126.065 349.524 127.159 349.524 128.514V129.331C349.524 127.975 350.359 126.881 351.393 126.881C352.427 126.881 353.262 127.975 353.262 129.331V130.964C353.262 129.608 354.097 128.514 355.131 128.514C356.165 128.514 357 129.608 357 130.964V144.175C357 145.278 356.748 146.352 356.286 147.263" stroke="black" stroke-width="2" stroke-miterlimit="10" stroke-linecap="round" stroke-linejoin="round"/>
</g>
</g>
</g>
</g>
<line id="Line 24" x1="342.967" y1="155.501" x2="357.967" y2="154.501" stroke="black"/>
<rect id="Rectangle 8" x="163" y="183" width="265" height="72" rx="12" fill="white" stroke="black" stroke-width="4"/>
<path id="CSS" d="M41.4062 164.277C40.6562 164.277 40.0938 163.838 39.7188 162.959C39.3906 162.209 39.0859 161.752 38.8047 161.588C38.5586 161.459 37.9492 161.395 36.9766 161.395C35.2773 161.395 33.3906 162.695 31.3164 165.297C28.5039 168.789 27.0977 172.1 27.0977 175.229C27.0977 176.74 27.584 178.041 28.5566 179.131C29.5527 180.256 30.7539 180.818 32.1602 180.818C33.3672 180.818 34.5801 180.508 35.7988 179.887C36.4785 179.535 37.5215 178.844 38.9277 177.812C39.5957 177.32 40.0996 177.074 40.4395 177.074C40.9434 177.074 41.3652 177.268 41.7051 177.654C42.0449 178.029 42.2148 178.451 42.2148 178.92C42.2148 179.447 41.9922 179.91 41.5469 180.309C38.4531 183.051 35.3242 184.422 32.1602 184.422C29.7344 184.422 27.6836 183.49 26.0078 181.627C24.3906 179.822 23.582 177.689 23.582 175.229C23.582 171.256 25.2461 167.184 28.5742 163.012C31.3516 159.531 34.1523 157.791 36.9766 157.791C37.5508 157.791 38.0664 157.82 38.5234 157.879C38.9805 157.926 39.3848 158.008 39.7363 158.125C40.1465 157.527 40.6797 157.229 41.3359 157.229C42.1445 157.229 42.6543 157.762 42.8652 158.828C43.0527 159.777 43.1465 160.943 43.1465 162.326C43.1465 162.807 43.0176 163.229 42.7598 163.592C42.4434 164.049 41.9922 164.277 41.4062 164.277ZM46.0469 179.623C46.0352 179.131 46.1992 178.732 46.5391 178.428C46.8906 178.111 47.3184 177.953 47.8223 177.953C48.3965 177.953 48.9004 178.281 49.334 178.938C49.9316 179.828 50.4648 180.432 50.9336 180.748C51.9297 181.404 53.377 181.732 55.2754 181.732C57.0918 181.732 58.7793 181.34 60.3379 180.555C62.3301 179.547 63.3262 178.146 63.3262 176.354C63.3262 174.877 62.4883 173.711 60.8125 172.855C59.3945 172.117 57.6426 171.719 55.5566 171.66C53.7051 171.59 52.1289 171.186 50.8281 170.447C49.1641 169.498 48.332 168.139 48.332 166.369C48.332 164.283 49.5156 162.379 51.8828 160.656C54.1445 159.027 56.4824 158.213 58.8965 158.213C60.0332 158.213 61.3164 158.406 62.7461 158.793C64.6445 159.297 65.5938 159.941 65.5938 160.727C65.5938 161.758 65.0664 162.273 64.0117 162.273C63.543 162.273 62.7227 162.15 61.5508 161.904C60.3789 161.646 59.4707 161.523 58.8262 161.535C56.998 161.559 55.4453 162.01 54.168 162.889C52.8555 163.791 52.1992 164.887 52.1992 166.176C52.1992 167.148 53.0664 167.834 54.8008 168.232C55.4453 168.385 56.6934 168.525 58.5449 168.654C61.2285 168.854 63.3262 169.697 64.8379 171.186C66.2207 172.545 66.9121 174.203 66.9121 176.16C66.9121 178.949 65.623 181.176 63.0449 182.84C60.8066 184.281 58.2109 185.002 55.2578 185.002C53.1133 185.002 51.1504 184.592 49.3691 183.771C47.1895 182.764 46.082 181.381 46.0469 179.623ZM71.0078 179.623C70.9961 179.131 71.1602 178.732 71.5 178.428C71.8516 178.111 72.2793 177.953 72.7832 177.953C73.3574 177.953 73.8613 178.281 74.2949 178.938C74.8926 179.828 75.4258 180.432 75.8945 180.748C76.8906 181.404 78.3379 181.732 80.2363 181.732C82.0527 181.732 83.7402 181.34 85.2988 180.555C87.291 179.547 88.2871 178.146 88.2871 176.354C88.2871 174.877 87.4492 173.711 85.7734 172.855C84.3555 172.117 82.6035 171.719 80.5176 171.66C78.666 171.59 77.0898 171.186 75.7891 170.447C74.125 169.498 73.293 168.139 73.293 166.369C73.293 164.283 74.4766 162.379 76.8438 160.656C79.1055 159.027 81.4434 158.213 83.8574 158.213C84.9941 158.213 86.2773 158.406 87.707 158.793C89.6055 159.297 90.5547 159.941 90.5547 160.727C90.5547 161.758 90.0273 162.273 88.9727 162.273C88.5039 162.273 87.6836 162.15 86.5117 161.904C85.3398 161.646 84.4316 161.523 83.7871 161.535C81.959 161.559 80.4062 162.01 79.1289 162.889C77.8164 163.791 77.1602 164.887 77.1602 166.176C77.1602 167.148 78.0273 167.834 79.7617 168.232C80.4062 168.385 81.6543 168.525 83.5059 168.654C86.1895 168.854 88.2871 169.697 89.7988 171.186C91.1816 172.545 91.873 174.203 91.873 176.16C91.873 178.949 90.584 181.176 88.0059 182.84C85.7676 184.281 83.1719 185.002 80.2188 185.002C78.0742 185.002 76.1113 184.592 74.3301 183.771C72.1504 182.764 71.043 181.381 71.0078 179.623Z" fill="#A259FF"/>
<path id="&#60;/&#62;" d="M94.875 104.609C95.75 105.25 96.8281 106.242 98.1094 107.586C99.625 109.164 100.664 110.195 101.227 110.68C101.789 111.164 102.07 111.695 102.07 112.273C102.07 112.852 101.859 113.359 101.438 113.797C101.016 114.234 100.523 114.453 99.9609 114.453C99.5234 114.453 99.0859 114.289 98.6484 113.961C98.0234 113.508 96.6875 112.211 94.6406 110.07C93.0781 108.43 91.5703 107.328 90.1172 106.766C88.9297 106.328 88.3359 105.68 88.3359 104.82C88.3359 104.039 88.875 103.391 89.9531 102.875C91.4062 102.172 93 100.906 94.7344 99.0781C97.1562 96.5469 98.5938 95.0938 99.0469 94.7188C99.5156 94.3281 99.9844 94.1328 100.453 94.1328C101.016 94.1328 101.508 94.3516 101.93 94.7891C102.367 95.2109 102.586 95.7109 102.586 96.2891C102.586 96.8203 102.352 97.3203 101.883 97.7891C100.383 99.3828 98.0469 101.656 94.875 104.609ZM110.367 121.109C109.789 121.109 109.281 120.914 108.844 120.523C108.406 120.133 108.188 119.648 108.188 119.07C108.188 118.82 108.242 118.555 108.352 118.273C109.57 114.914 111.867 110.078 115.242 103.766C118.617 97.4375 120.922 92.5859 122.156 89.2109C124.203 83.6172 125.75 80.8438 126.797 80.8906C127.375 80.9062 127.883 81.1172 128.32 81.5234C128.758 81.9141 128.977 82.3906 128.977 82.9531C128.977 83.3125 128.891 83.7422 128.719 84.2422L126.094 90.6172C125.047 93.5078 123.555 96.8438 121.617 100.625L116.508 110.328L112.266 119.727C111.844 120.648 111.211 121.109 110.367 121.109ZM148.031 103.461C148.031 104.023 147.742 104.578 147.164 105.125C143.445 108.578 139.547 111.609 135.469 114.219C135.031 114.5 134.617 114.641 134.227 114.641C133.664 114.641 133.172 114.422 132.75 113.984C132.344 113.531 132.141 113.023 132.141 112.461C132.141 111.836 132.445 111.289 133.055 110.82L142.148 103.883C140.758 102.961 139.039 101.547 136.992 99.6406C134.492 97.2812 133.242 95.6484 133.242 94.7422C133.242 94.1797 133.461 93.6875 133.898 93.2656C134.336 92.8438 134.836 92.6328 135.398 92.6328C135.977 92.6328 136.5 92.8984 136.969 93.4297C140.531 97.4141 143.758 100.156 146.648 101.656C147.57 102.125 148.031 102.727 148.031 103.461Z" fill="#2684FF"/>
<path id="HTML" d="M482.594 119.232C482.418 119.725 482.33 120.445 482.33 121.395C482.33 121.746 482.342 122.268 482.365 122.959C482.389 123.65 482.4 124.172 482.4 124.523C482.4 125.695 482.295 127.441 482.084 129.762C481.885 132.082 481.785 133.828 481.785 135C481.785 135.891 481.85 137.227 481.979 139.008C482.107 140.789 482.172 142.131 482.172 143.033C482.172 143.514 482.008 143.918 481.68 144.246C481.363 144.574 480.965 144.738 480.484 144.738C480.016 144.738 479.617 144.574 479.289 144.246C478.961 143.918 478.797 143.514 478.797 143.033C478.797 142.131 478.732 140.789 478.604 139.008C478.475 137.227 478.41 135.891 478.41 135C478.41 134.145 478.439 133.277 478.498 132.398C476.494 132.434 474.016 132.732 471.062 133.295L463.68 134.736C463.68 135.791 463.574 137.291 463.363 139.236C463.152 141.17 463.047 142.67 463.047 143.736C463.047 144.217 462.883 144.621 462.555 144.949C462.238 145.289 461.84 145.459 461.359 145.459C460.879 145.459 460.475 145.289 460.146 144.949C459.83 144.621 459.672 144.217 459.672 143.736C459.672 142.494 459.771 140.643 459.971 138.182C460.182 135.709 460.287 133.852 460.287 132.609C460.287 131.965 460.264 130.992 460.217 129.691C460.17 128.391 460.146 127.412 460.146 126.756C460.146 125.83 460.205 124.441 460.322 122.59C460.439 120.727 460.498 119.332 460.498 118.406C460.498 117.914 460.656 117.504 460.973 117.176C461.301 116.848 461.705 116.684 462.186 116.684C462.666 116.684 463.064 116.848 463.381 117.176C463.709 117.504 463.873 117.914 463.873 118.406C463.873 119.344 463.809 120.75 463.68 122.625C463.562 124.488 463.504 125.889 463.504 126.826L463.609 131.273L471.15 129.85C474.162 129.287 476.699 128.994 478.762 128.971C478.891 127.295 478.955 124.77 478.955 121.395C478.955 120.504 479.102 119.602 479.395 118.688C479.781 117.434 480.326 116.807 481.029 116.807C481.475 116.807 481.873 116.971 482.225 117.299C482.576 117.615 482.752 118.02 482.752 118.512C482.752 118.688 482.699 118.928 482.594 119.232ZM508.609 121.799C507.742 121.799 506.406 121.729 504.602 121.588C502.844 121.459 501.508 121.4 500.594 121.412H499.346C499.381 123.029 499.539 125.654 499.82 129.287C500.078 132.674 500.207 135.305 500.207 137.18C500.207 137.59 500.248 138.211 500.33 139.043C500.412 139.875 500.453 140.502 500.453 140.924C500.453 141.721 500.324 142.406 500.066 142.98C499.738 143.754 499.229 144.141 498.537 144.141C498.068 144.141 497.646 143.977 497.271 143.648C496.896 143.32 496.709 142.898 496.709 142.383C496.709 142.207 496.738 141.943 496.797 141.592C496.855 141.24 496.885 140.977 496.885 140.801C496.885 140.227 496.844 139.365 496.762 138.217C496.691 137.068 496.656 136.201 496.656 135.615C496.656 133.939 496.521 131.584 496.252 128.549C495.971 125.268 495.812 122.912 495.777 121.482L494.178 121.5C491.611 121.5 489.596 121.312 488.131 120.938C487.182 120.691 486.707 120.111 486.707 119.197C486.707 118.717 486.859 118.295 487.164 117.932C487.516 117.521 487.967 117.334 488.518 117.369C488.928 117.393 489.865 117.498 491.33 117.686C492.502 117.826 493.451 117.896 494.178 117.896C494.881 117.896 495.947 117.885 497.377 117.861C498.807 117.826 499.873 117.809 500.576 117.809C501.479 117.809 502.814 117.873 504.584 118.002C506.365 118.131 507.707 118.195 508.609 118.195C509.113 118.195 509.535 118.371 509.875 118.723C510.215 119.062 510.385 119.49 510.385 120.006C510.385 120.51 510.215 120.938 509.875 121.289C509.535 121.629 509.113 121.799 508.609 121.799ZM537.701 145.459C537.068 145.459 536.547 145.131 536.137 144.475C535.785 143.912 535.469 142.975 535.188 141.662L534.555 138.639C534.074 136.764 533.312 132.627 532.27 126.229L528.754 136.828L527.717 140.168C527.295 141.492 526.855 142.576 526.398 143.42C525.906 144.311 525.244 144.756 524.412 144.756C523.721 144.756 523.176 144.381 522.777 143.631C522.52 143.139 522.285 142.512 522.074 141.75L521.564 139.799C520.381 135.662 519.338 131.232 518.436 126.51L517.803 129.656L515.535 138.938C515.441 140.027 515.148 141.639 514.656 143.771C514.305 144.686 513.725 145.143 512.916 145.143C512.342 145.143 511.885 144.938 511.545 144.527C511.252 144.176 511.105 143.742 511.105 143.227C511.105 141.27 511.51 138.867 512.318 136.02L514.252 128.936L515.271 123.398C515.787 120.809 516.332 119.115 516.906 118.318C517.375 117.639 517.955 117.299 518.646 117.299C519.408 117.299 519.977 117.732 520.352 118.6C520.809 119.643 521.301 121.77 521.828 124.98C522.449 128.836 523.416 133.008 524.729 137.496C526.463 132.984 527.963 128.285 529.229 123.398L529.756 120.832C529.967 119.801 530.242 118.969 530.582 118.336C531.039 117.469 531.666 117.035 532.463 117.035C533.471 117.035 534.238 118.008 534.766 119.953C534.953 120.621 535.182 122.004 535.451 124.102C536.143 129.398 537.004 133.922 538.035 137.672L538.896 140.695C539.342 142.312 539.564 143.309 539.564 143.684C539.564 144.188 539.371 144.609 538.984 144.949C538.609 145.289 538.182 145.459 537.701 145.459ZM558.936 143.279C557.611 143.9 555.531 144.457 552.695 144.949C550.082 145.406 547.949 145.635 546.297 145.635C545.113 145.635 544.264 145.453 543.748 145.09C543.045 144.598 542.693 143.695 542.693 142.383L543.045 136.564C543.35 131.197 543.502 125.244 543.502 118.705C543.502 118.201 543.666 117.773 543.994 117.422C544.334 117.07 544.75 116.895 545.242 116.895C545.746 116.895 546.162 117.07 546.49 117.422C546.83 117.773 547 118.201 547 118.705C547 125.326 546.842 131.35 546.525 136.775L546.297 139.447C546.203 140.42 546.168 141.281 546.191 142.031C549.25 142.066 553.117 141.346 557.793 139.869C557.992 139.811 558.18 139.781 558.355 139.781C558.859 139.781 559.281 139.98 559.621 140.379C559.914 140.742 560.061 141.158 560.061 141.627C560.061 142.377 559.686 142.928 558.936 143.279Z" fill="#FF3E00"/>
<g id="Vector 16">
<path d="M428.518 269V258.519C428.199 256.714 429.097 255.296 430.926 255.186C437.014 254.819 450.504 254.989 452.325 255.747C453.878 256.393 454.223 257.705 453.878 258.519V269C453.878 275.075 448.953 280 442.878 280H439.518C433.442 280 428.518 275.075 428.518 269Z" fill="white"/>
<path d="M428.518 258.519V269C428.518 275.075 433.442 280 439.518 280H442.878C448.953 280 453.878 275.075 453.878 269V258.519M428.518 258.519L433.38 259.474C438.373 260.455 443.508 260.475 448.509 259.531L453.878 258.519M428.518 258.519V258.519C428.199 256.714 429.097 255.296 430.926 255.186C437.014 254.819 450.504 254.989 452.325 255.747C453.878 256.393 454.223 257.705 453.878 258.519" stroke="black" stroke-width="2" stroke-linecap="round"/>
</g>
<g id="Ellipse 8">
<mask id="path-72-inside-1_68_566" fill="white">
<path d="M428.5 271C427.778 271 427.063 270.858 426.395 270.581C425.728 270.305 425.122 269.9 424.611 269.389C424.1 268.878 423.695 268.272 423.419 267.605C423.142 266.937 423 266.222 423 265.5C423 264.778 423.142 264.063 423.419 263.395C423.695 262.728 424.1 262.122 424.611 261.611C425.122 261.1 425.728 260.695 426.395 260.419C427.063 260.142 427.778 260 428.5 260L428.5 265.5L428.5 271Z"/>
</mask>
<path d="M428.5 271C427.778 271 427.063 270.858 426.395 270.581C425.728 270.305 425.122 269.9 424.611 269.389C424.1 268.878 423.695 268.272 423.419 267.605C423.142 266.937 423 266.222 423 265.5C423 264.778 423.142 264.063 423.419 263.395C423.695 262.728 424.1 262.122 424.611 261.611C425.122 261.1 425.728 260.695 426.395 260.419C427.063 260.142 427.778 260 428.5 260L428.5 265.5L428.5 271Z" fill="white" stroke="black" stroke-width="4" mask="url(#path-72-inside-1_68_566)"/>
</g>
<g id="Group 6">
<g id="while (!Success){ }">
<path d="M219.656 15.5117C219.047 18.0586 218.25 20.9375 217.266 24.1484C217.047 24.8594 216.684 25.5898 216.176 26.3398C215.902 26.7539 215.531 26.957 215.062 26.9492C214.211 26.9336 213.547 25.875 213.07 23.7734C212.914 23.1016 212.754 22.1875 212.59 21.0312L212.203 18.418L211.242 20.6562L209.461 25.4961C209.359 25.793 209.211 26.0195 209.016 26.1758C208.781 26.6289 208.406 26.8633 207.891 26.8789C207.297 26.9023 206.723 25.7383 206.168 23.3867C205.887 22.1758 205.605 20.5352 205.324 18.4648L205.043 16.707C204.941 16.0039 204.891 15.4141 204.891 14.9375C204.891 14.6094 205.004 14.3398 205.23 14.1289C205.465 13.9102 205.746 13.8008 206.074 13.8008C206.668 13.8008 207.035 14.125 207.176 14.7734C207.277 15.2344 207.359 15.8047 207.422 16.4844L207.598 18.207L208.289 23.4688C209.156 21.0625 210.055 18.2891 210.984 15.1484C211.242 14.2812 211.691 13.8477 212.332 13.8477C212.949 13.8477 213.367 14.332 213.586 15.3008C213.789 16.2148 214.043 17.6211 214.348 19.5195C214.66 21.4883 214.938 23.0234 215.18 24.125L216.035 20.9375L217.547 14.5508C217.664 14.0742 218 13.8359 218.555 13.8359C218.883 13.8359 219.168 13.9492 219.41 14.1758C219.652 14.3945 219.773 14.6602 219.773 14.9727C219.773 15.0117 219.734 15.1914 219.656 15.5117ZM231.867 26.7266C231.312 26.7266 230.949 26.4297 230.777 25.8359C230.598 25.1953 230.434 24.2852 230.285 23.1055C230.145 21.9727 230.074 21.043 230.074 20.3164C230.074 20.1133 230.082 19.8047 230.098 19.3906C230.121 18.9766 230.133 18.668 230.133 18.4648C230.133 16.9961 229.766 16.2617 229.031 16.2617C228.039 16.2617 227.152 16.7109 226.371 17.6094C225.973 18.0703 225.426 18.9492 224.73 20.2461C224.73 23.2227 224.605 24.9844 224.355 25.5312C224.137 26.0156 223.797 26.2578 223.336 26.2578C223.016 26.2578 222.734 26.1484 222.492 25.9297C222.25 25.7109 222.129 25.4453 222.129 25.1328C222.129 25.0234 222.164 24.8516 222.234 24.6172C222.297 24.4219 222.34 23.8516 222.363 22.9062L222.398 21.1719L222.434 12.5586C222.488 11.5898 222.516 10.9375 222.516 10.6016C222.516 10.2031 222.477 9.82812 222.398 9.47656C222.328 9.11719 222.293 8.74609 222.293 8.36328C222.293 8.03516 222.406 7.76562 222.633 7.55469C222.859 7.33594 223.137 7.22656 223.465 7.22656C224.105 7.22656 224.48 7.57031 224.59 8.25781C224.715 9.01562 224.777 9.69922 224.777 10.3086C224.777 11.1289 224.75 11.9844 224.695 12.875C224.648 13.7266 224.629 14.582 224.637 15.4414L224.648 16.4727C225.289 15.6133 225.973 14.9727 226.699 14.5508C227.434 14.1211 228.211 13.9062 229.031 13.9062C230.328 13.9062 231.219 14.3281 231.703 15.1719C232.047 15.7656 232.242 16.7656 232.289 18.1719L232.383 20.4102L232.617 22.8477C232.727 23.7617 232.859 24.5664 233.016 25.2617C233.047 25.3945 233.062 25.5078 233.062 25.6016C233.062 25.9219 232.945 26.1875 232.711 26.3984C232.477 26.6172 232.195 26.7266 231.867 26.7266ZM238.172 11.1641C237.797 11.1641 237.473 11.0312 237.199 10.7656C236.926 10.5 236.789 10.1797 236.789 9.80469C236.789 9.42969 236.926 9.10938 237.199 8.84375C237.473 8.57812 237.797 8.44531 238.172 8.44531C238.547 8.44531 238.867 8.57812 239.133 8.84375C239.406 9.10938 239.543 9.42969 239.543 9.80469C239.543 10.1797 239.406 10.5 239.133 10.7656C238.867 11.0312 238.547 11.1641 238.172 11.1641ZM238.699 20.6797C238.699 21.1484 238.711 21.8516 238.734 22.7891C238.766 23.7188 238.781 24.418 238.781 24.8867C238.781 25.2305 238.676 25.5117 238.465 25.7305C238.254 25.9492 237.977 26.0586 237.633 26.0586C237.297 26.0586 237.02 25.9492 236.801 25.7305C236.59 25.5117 236.484 25.2305 236.484 24.8867C236.484 24.418 236.469 23.7188 236.438 22.7891C236.414 21.8516 236.402 21.1484 236.402 20.6797C236.402 19.9453 236.441 19.0312 236.52 17.9375C236.598 16.8359 236.637 15.918 236.637 15.1836C236.637 14.832 236.742 14.5469 236.953 14.3281C237.172 14.1094 237.449 14 237.785 14C238.121 14 238.395 14.1094 238.605 14.3281C238.824 14.5469 238.934 14.832 238.934 15.1836C238.934 15.918 238.895 16.8359 238.816 17.9375C238.738 19.0312 238.699 19.9453 238.699 20.6797ZM245.637 16.7891L245.461 22.6133C245.461 23.2305 245.43 24.1367 245.367 25.332C245.289 26.1133 244.906 26.5039 244.219 26.5039C243.453 26.5039 243.07 26.1055 243.07 25.3086C243.07 24.3633 243.113 22.9453 243.199 21.0547C243.285 19.1562 243.328 17.7344 243.328 16.7891C243.328 15.5547 243.348 14.1445 243.387 12.5586C243.426 10.9648 243.445 9.55078 243.445 8.31641C243.445 7.53516 243.828 7.14453 244.594 7.14453C245.367 7.14453 245.754 7.53516 245.754 8.31641C245.754 9.55078 245.734 10.9648 245.695 12.5586C245.656 14.1445 245.637 15.5547 245.637 16.7891ZM254.719 26.5391C252.953 26.5391 251.523 26.0977 250.43 25.2148C249.234 24.2383 248.637 22.8711 248.637 21.1133C248.637 19.082 249.129 17.3789 250.113 16.0039C251.184 14.5039 252.613 13.7539 254.402 13.7539C255.699 13.7539 256.758 13.9727 257.578 14.4102C258.586 14.9492 259.09 15.7773 259.09 16.8945C259.09 17.6758 258.648 18.3867 257.766 19.0273C257.375 19.3086 256.547 19.7461 255.281 20.3398L250.805 22.4609C251.242 23.1094 251.785 23.5977 252.434 23.9258C253.09 24.2539 253.852 24.418 254.719 24.418C255.258 24.418 255.891 24.3164 256.617 24.1133C257.539 23.8555 258.133 23.5195 258.398 23.1055C258.664 22.6836 258.949 22.4727 259.254 22.4727C259.527 22.4727 259.77 22.5781 259.98 22.7891C260.199 22.9922 260.309 23.2305 260.309 23.5039C260.309 24.3711 259.609 25.1172 258.211 25.7422C257.016 26.2734 255.852 26.5391 254.719 26.5391ZM254.402 15.8633C253.449 15.8633 252.656 16.2344 252.023 16.9766C251.391 17.7109 250.918 18.8203 250.605 20.3047L254.203 18.5938C255.617 17.9062 256.625 17.3086 257.227 16.8008C256.555 16.1758 255.613 15.8633 254.402 15.8633Z" fill="#FF3E00"/>
<path d="M276.094 8.26953C276.094 8.54297 275.852 8.94141 275.367 9.46484C275.008 9.82422 274.652 10.1836 274.301 10.543C273.434 11.5273 272.754 12.9336 272.262 14.7617C271.832 16.3555 271.617 17.9219 271.617 19.4609C271.617 23.4297 272.516 26.3398 274.312 28.1914C274.672 28.4727 275.035 28.7539 275.402 29.0352C275.855 29.3945 276.082 29.75 276.082 30.1016C276.082 30.3594 275.98 30.582 275.777 30.7695C275.574 30.9648 275.34 31.0625 275.074 31.0625C274.84 31.0625 274.559 30.9727 274.23 30.793C270.926 28.9414 269.273 25.0742 269.273 19.1914C269.273 17.0742 269.699 14.9297 270.551 12.7578C271.504 10.3438 272.754 8.59375 274.301 7.50781C274.613 7.28906 274.859 7.17969 275.039 7.17969C275.32 7.17969 275.566 7.29297 275.777 7.51953C275.988 7.73828 276.094 7.98828 276.094 8.26953ZM280.605 8.23438V21.2773C280.605 21.9727 280.258 22.3203 279.562 22.3203C278.867 22.3203 278.52 21.9727 278.52 21.2773C278.52 20.957 278.508 20.4805 278.484 19.8477C278.469 19.207 278.461 18.7305 278.461 18.418C278.461 17.2852 278.469 15.5898 278.484 13.332C278.508 11.0664 278.52 9.36719 278.52 8.23438C278.52 7.53906 278.867 7.19141 279.562 7.19141C280.258 7.19141 280.605 7.53906 280.605 8.23438ZM280.617 25.7305C280.617 26.0117 280.504 26.2539 280.277 26.457C280.059 26.668 279.809 26.7734 279.527 26.7734C279.215 26.7734 278.902 26.5703 278.59 26.1641C278.285 25.7812 278.133 25.4297 278.133 25.1094C278.133 24.8281 278.242 24.5859 278.461 24.3828C278.688 24.1797 278.945 24.0781 279.234 24.0781C279.539 24.0781 279.852 24.2812 280.172 24.6875C280.469 25.0703 280.617 25.418 280.617 25.7305ZM380.93 19.1914C380.93 25.0742 379.273 28.9414 375.961 30.793C375.641 30.9727 375.363 31.0625 375.129 31.0625C374.863 31.0625 374.629 30.9648 374.426 30.7695C374.223 30.582 374.121 30.3594 374.121 30.1016C374.121 29.75 374.348 29.3945 374.801 29.0352C375.16 28.7539 375.523 28.4727 375.891 28.1914C377.688 26.3398 378.586 23.4297 378.586 19.4609C378.586 17.9219 378.371 16.3555 377.941 14.7617C377.441 12.9336 376.762 11.5273 375.902 10.543C375.543 10.1836 375.188 9.82422 374.836 9.46484C374.352 8.94141 374.109 8.54297 374.109 8.26953C374.109 7.98828 374.211 7.73828 374.414 7.51953C374.625 7.29297 374.871 7.17969 375.152 7.17969C375.332 7.17969 375.582 7.28906 375.902 7.50781C377.449 8.59375 378.699 10.3438 379.652 12.7578C380.504 14.9297 380.93 17.0742 380.93 19.1914ZM384.598 19.2852C384.91 19.6367 385.215 20.0898 385.512 20.6445C385.863 21.2852 386.039 21.7891 386.039 22.1562C386.039 22.4141 386.008 22.8008 385.945 23.3164C385.883 23.832 385.852 24.2188 385.852 24.4766C385.852 25.1328 386.004 25.8828 386.309 26.7266C386.691 27.7812 387.152 28.3086 387.691 28.3086C388.332 28.3086 388.742 28.3398 388.922 28.4023C389.32 28.5352 389.52 28.8594 389.52 29.375C389.52 29.8672 389.32 30.1953 388.922 30.3594C388.68 30.4531 388.27 30.5 387.691 30.5C386.434 30.5 385.414 29.7812 384.633 28.3438C383.984 27.1484 383.66 25.8594 383.66 24.4766C383.66 24.2656 383.691 23.9453 383.754 23.5156C383.816 23.0859 383.848 22.7656 383.848 22.5547C383.848 21.9141 383.477 21.332 382.734 20.8086C382 20.2773 381.633 19.8359 381.633 19.4844C381.633 19.0781 381.953 18.5781 382.594 17.9844C383.172 17.4453 383.656 17.1211 384.047 17.0117V16.6836L384.012 14.3516L383.953 12.0195C383.953 9.55078 384.73 7.97656 386.285 7.29688C386.824 7.07031 387.34 6.95703 387.832 6.95703C388.27 6.95703 388.676 7.0625 389.051 7.27344C389.504 7.52344 389.73 7.85156 389.73 8.25781C389.73 8.67969 389.453 8.95312 388.898 9.07812C388.375 9.14844 387.98 9.1875 387.715 9.19531C386.621 9.3125 386.074 10.1406 386.074 11.6797C386.074 12.0156 386.098 12.8125 386.145 14.0703C386.199 15.3281 386.227 16.125 386.227 16.4609C386.227 16.9297 386.066 17.457 385.746 18.043C385.41 18.6602 385.027 19.0742 384.598 19.2852ZM209.203 85.2852C208.773 85.0742 208.391 84.6602 208.055 84.043C207.734 83.457 207.574 82.9297 207.574 82.4609C207.574 82.125 207.598 81.3281 207.645 80.0703C207.699 78.8125 207.727 78.0156 207.727 77.6797C207.727 76.1406 207.18 75.3125 206.086 75.1953C205.82 75.1875 205.426 75.1484 204.902 75.0781C204.348 74.9531 204.07 74.6797 204.07 74.2578C204.07 73.8516 204.297 73.5234 204.75 73.2734C205.125 73.0625 205.531 72.957 205.969 72.957C206.461 72.957 206.977 73.0703 207.516 73.2969C209.07 73.9766 209.848 75.5508 209.848 78.0195L209.789 80.3516L209.754 82.6836V83.0117C210.145 83.1211 210.629 83.4453 211.207 83.9844C211.848 84.5781 212.168 85.0781 212.168 85.4844C212.168 85.8359 211.797 86.2773 211.055 86.8086C210.312 87.332 209.941 87.9141 209.941 88.5547C209.941 88.7656 209.973 89.0859 210.035 89.5156C210.105 89.9453 210.141 90.2656 210.141 90.4766C210.141 91.8594 209.816 93.1484 209.168 94.3438C208.387 95.7812 207.367 96.5 206.109 96.5C205.531 96.5 205.121 96.4531 204.879 96.3594C204.48 96.1953 204.281 95.8672 204.281 95.375C204.281 94.8594 204.48 94.5352 204.879 94.4023C205.059 94.3398 205.469 94.3086 206.109 94.3086C206.648 94.3086 207.109 93.7812 207.492 92.7266C207.797 91.8828 207.949 91.1328 207.949 90.4766C207.949 90.2188 207.918 89.832 207.855 89.3164C207.793 88.8008 207.762 88.4141 207.762 88.1562C207.762 87.7891 207.938 87.2852 208.289 86.6445C208.586 86.0898 208.891 85.6367 209.203 85.2852Z" fill="black"/>
<path d="M284.016 23.082C284.008 22.7539 284.117 22.4883 284.344 22.2852C284.578 22.0742 284.863 21.9688 285.199 21.9688C285.582 21.9688 285.918 22.1875 286.207 22.625C286.605 23.2188 286.961 23.6211 287.273 23.832C287.938 24.2695 288.902 24.4883 290.168 24.4883C291.379 24.4883 292.504 24.2266 293.543 23.7031C294.871 23.0312 295.535 22.0977 295.535 20.9023C295.535 19.918 294.977 19.1406 293.859 18.5703C292.914 18.0781 291.746 17.8125 290.355 17.7734C289.121 17.7266 288.07 17.457 287.203 16.9648C286.094 16.332 285.539 15.4258 285.539 14.2461C285.539 12.8555 286.328 11.5859 287.906 10.4375C289.414 9.35156 290.973 8.80859 292.582 8.80859C293.34 8.80859 294.195 8.9375 295.148 9.19531C296.414 9.53125 297.047 9.96094 297.047 10.4844C297.047 11.1719 296.695 11.5156 295.992 11.5156C295.68 11.5156 295.133 11.4336 294.352 11.2695C293.57 11.0977 292.965 11.0156 292.535 11.0234C291.316 11.0391 290.281 11.3398 289.43 11.9258C288.555 12.5273 288.117 13.2578 288.117 14.1172C288.117 14.7656 288.695 15.2227 289.852 15.4883C290.281 15.5898 291.113 15.6836 292.348 15.7695C294.137 15.9023 295.535 16.4648 296.543 17.457C297.465 18.3633 297.926 19.4688 297.926 20.7734C297.926 22.6328 297.066 24.1172 295.348 25.2266C293.855 26.1875 292.125 26.668 290.156 26.668C288.727 26.668 287.418 26.3945 286.23 25.8477C284.777 25.1758 284.039 24.2539 284.016 23.082ZM310.277 19.1562C310.277 19.7188 310.281 20.5625 310.289 21.6875C310.297 22.8125 310.301 23.6562 310.301 24.2188C310.301 24.3906 310.312 24.6523 310.336 25.0039C310.367 25.3555 310.383 25.6172 310.383 25.7891C310.383 26.125 310.27 26.3984 310.043 26.6094C309.816 26.8281 309.539 26.9375 309.211 26.9375C308.609 26.9375 308.227 26.5664 308.062 25.8242C307.086 26.332 305.961 26.5859 304.688 26.5859C303.664 26.5859 302.816 26.3594 302.145 25.9062C301.402 25.4062 300.961 24.6758 300.82 23.7148C300.516 21.6445 300.363 19.8008 300.363 18.1836C300.363 17.1133 300.48 15.8945 300.715 14.5273C300.824 13.8477 301.195 13.5078 301.828 13.5078C302.164 13.5078 302.445 13.6172 302.672 13.8359C302.898 14.0469 303.012 14.3203 303.012 14.6562C303.012 15.0156 302.953 15.5898 302.836 16.3789C302.727 17.168 302.672 17.7695 302.672 18.1836C302.672 19.4883 302.715 20.6055 302.801 21.5352C302.887 22.4648 303.016 23.2109 303.188 23.7734C303.445 23.9141 303.699 24.0234 303.949 24.1016C304.199 24.1719 304.445 24.207 304.688 24.207C305.734 24.207 306.84 24.0391 308.004 23.7031L307.992 21.3242L307.969 19.0508C307.969 17.3633 308.043 15.8984 308.191 14.6562C308.277 13.9375 308.656 13.5781 309.328 13.5781C309.664 13.5781 309.945 13.6875 310.172 13.9062C310.398 14.125 310.504 14.3984 310.488 14.7266L310.277 19.1562ZM318.504 26.7383C316.902 26.7383 315.566 26.2539 314.496 25.2852C313.371 24.2695 312.809 22.9297 312.809 21.2656C312.809 19.6797 313.336 18.043 314.391 16.3555C315.562 14.4805 316.883 13.543 318.352 13.543C319.117 13.543 319.973 13.7227 320.918 14.082C322.113 14.543 322.711 15.1055 322.711 15.7695C322.711 16.0664 322.613 16.332 322.418 16.5664C322.223 16.793 321.98 16.9062 321.691 16.9062C321.465 16.9062 321.266 16.8398 321.094 16.707C320.93 16.5664 320.77 16.4297 320.613 16.2969C320.152 15.9297 319.398 15.7461 318.352 15.7461C317.555 15.7461 316.766 16.457 315.984 17.8789C315.273 19.1836 314.918 20.3125 314.918 21.2656C314.918 22.2969 315.27 23.1094 315.973 23.7031C316.629 24.2578 317.473 24.5352 318.504 24.5352C318.973 24.5352 319.473 24.4102 320.004 24.1602L321.363 23.4336C321.598 23.3086 321.766 23.2461 321.867 23.2461C322.156 23.2461 322.406 23.3633 322.617 23.5977C322.828 23.8242 322.934 24.0859 322.934 24.3828C322.934 24.9531 322.332 25.5039 321.129 26.0352C320.074 26.5039 319.199 26.7383 318.504 26.7383ZM330.832 26.7383C329.23 26.7383 327.895 26.2539 326.824 25.2852C325.699 24.2695 325.137 22.9297 325.137 21.2656C325.137 19.6797 325.664 18.043 326.719 16.3555C327.891 14.4805 329.211 13.543 330.68 13.543C331.445 13.543 332.301 13.7227 333.246 14.082C334.441 14.543 335.039 15.1055 335.039 15.7695C335.039 16.0664 334.941 16.332 334.746 16.5664C334.551 16.793 334.309 16.9062 334.02 16.9062C333.793 16.9062 333.594 16.8398 333.422 16.707C333.258 16.5664 333.098 16.4297 332.941 16.2969C332.48 15.9297 331.727 15.7461 330.68 15.7461C329.883 15.7461 329.094 16.457 328.312 17.8789C327.602 19.1836 327.246 20.3125 327.246 21.2656C327.246 22.2969 327.598 23.1094 328.301 23.7031C328.957 24.2578 329.801 24.5352 330.832 24.5352C331.301 24.5352 331.801 24.4102 332.332 24.1602L333.691 23.4336C333.926 23.3086 334.094 23.2461 334.195 23.2461C334.484 23.2461 334.734 23.3633 334.945 23.5977C335.156 23.8242 335.262 24.0859 335.262 24.3828C335.262 24.9531 334.66 25.5039 333.457 26.0352C332.402 26.5039 331.527 26.7383 330.832 26.7383ZM343.336 26.5391C341.57 26.5391 340.141 26.0977 339.047 25.2148C337.852 24.2383 337.254 22.8711 337.254 21.1133C337.254 19.082 337.746 17.3789 338.73 16.0039C339.801 14.5039 341.23 13.7539 343.02 13.7539C344.316 13.7539 345.375 13.9727 346.195 14.4102C347.203 14.9492 347.707 15.7773 347.707 16.8945C347.707 17.6758 347.266 18.3867 346.383 19.0273C345.992 19.3086 345.164 19.7461 343.898 20.3398L339.422 22.4609C339.859 23.1094 340.402 23.5977 341.051 23.9258C341.707 24.2539 342.469 24.418 343.336 24.418C343.875 24.418 344.508 24.3164 345.234 24.1133C346.156 23.8555 346.75 23.5195 347.016 23.1055C347.281 22.6836 347.566 22.4727 347.871 22.4727C348.145 22.4727 348.387 22.5781 348.598 22.7891C348.816 22.9922 348.926 23.2305 348.926 23.5039C348.926 24.3711 348.227 25.1172 346.828 25.7422C345.633 26.2734 344.469 26.5391 343.336 26.5391ZM343.02 15.8633C342.066 15.8633 341.273 16.2344 340.641 16.9766C340.008 17.7109 339.535 18.8203 339.223 20.3047L342.82 18.5938C344.234 17.9062 345.242 17.3086 345.844 16.8008C345.172 16.1758 344.23 15.8633 343.02 15.8633ZM358.922 16.9766C358.492 16.9766 358.191 16.832 358.02 16.543C357.902 16.3398 357.801 15.918 357.715 15.2773C357.129 15.4258 356.227 15.6992 355.008 16.0977C353.75 16.5977 353.117 17.2148 353.109 17.9492C353.344 18.0352 353.574 18.0977 353.801 18.1367C355.598 18.457 356.934 18.8984 357.809 19.4609C359.082 20.2812 359.719 21.4688 359.719 23.0234C359.719 24.2969 359.168 25.2578 358.066 25.9062C357.152 26.4375 355.996 26.7031 354.598 26.7031C353.574 26.7031 352.598 26.5312 351.668 26.1875C350.465 25.75 349.863 25.1406 349.863 24.3594C349.863 24.0469 349.984 23.7734 350.227 23.5391C350.477 23.3047 350.758 23.1875 351.07 23.1875C351.312 23.1875 351.625 23.375 352.008 23.75C352.195 23.9297 352.617 24.0781 353.273 24.1953C353.797 24.2891 354.238 24.3359 354.598 24.3359C355.254 24.3359 355.832 24.2578 356.332 24.1016C357.059 23.875 357.422 23.5156 357.422 23.0234C357.422 21.9609 356.68 21.2422 355.195 20.8672L353.977 20.5977C352.938 20.3711 352.199 20.1055 351.762 19.8008C351.129 19.3633 350.812 18.7031 350.812 17.8203C350.812 16.1875 351.582 15.0234 353.121 14.3281C353.59 14.1172 354.34 13.8672 355.371 13.5781C356.402 13.2812 357.141 13.0312 357.586 12.8281C357.906 12.6875 358.254 12.6172 358.629 12.6172C358.965 12.6172 359.238 12.7266 359.449 12.9453C359.668 13.1641 359.777 13.4492 359.777 13.8008C359.777 14.0273 359.824 14.3594 359.918 14.7969C360.02 15.2344 360.07 15.5664 360.07 15.793C360.07 16.1445 359.961 16.4297 359.742 16.6484C359.531 16.8672 359.258 16.9766 358.922 16.9766ZM370.617 16.9766C370.188 16.9766 369.887 16.832 369.715 16.543C369.598 16.3398 369.496 15.918 369.41 15.2773C368.824 15.4258 367.922 15.6992 366.703 16.0977C365.445 16.5977 364.812 17.2148 364.805 17.9492C365.039 18.0352 365.27 18.0977 365.496 18.1367C367.293 18.457 368.629 18.8984 369.504 19.4609C370.777 20.2812 371.414 21.4688 371.414 23.0234C371.414 24.2969 370.863 25.2578 369.762 25.9062C368.848 26.4375 367.691 26.7031 366.293 26.7031C365.27 26.7031 364.293 26.5312 363.363 26.1875C362.16 25.75 361.559 25.1406 361.559 24.3594C361.559 24.0469 361.68 23.7734 361.922 23.5391C362.172 23.3047 362.453 23.1875 362.766 23.1875C363.008 23.1875 363.32 23.375 363.703 23.75C363.891 23.9297 364.312 24.0781 364.969 24.1953C365.492 24.2891 365.934 24.3359 366.293 24.3359C366.949 24.3359 367.527 24.2578 368.027 24.1016C368.754 23.875 369.117 23.5156 369.117 23.0234C369.117 21.9609 368.375 21.2422 366.891 20.8672L365.672 20.5977C364.633 20.3711 363.895 20.1055 363.457 19.8008C362.824 19.3633 362.508 18.7031 362.508 17.8203C362.508 16.1875 363.277 15.0234 364.816 14.3281C365.285 14.1172 366.035 13.8672 367.066 13.5781C368.098 13.2812 368.836 13.0312 369.281 12.8281C369.602 12.6875 369.949 12.6172 370.324 12.6172C370.66 12.6172 370.934 12.7266 371.145 12.9453C371.363 13.1641 371.473 13.4492 371.473 13.8008C371.473 14.0273 371.52 14.3594 371.613 14.7969C371.715 15.2344 371.766 15.5664 371.766 15.793C371.766 16.1445 371.656 16.4297 371.438 16.6484C371.227 16.8672 370.953 16.9766 370.617 16.9766Z" fill="#A259FF"/>
</g>
<g id="tryAgain()">
<path d="M260.469 51.0156C260.305 51.0156 260.109 51.0078 259.883 50.9922C259.664 50.9766 259.473 50.9688 259.309 50.9688C259.129 50.9688 258.598 51.0273 257.715 51.1445L257.938 58.0703L257.949 58.5859L257.961 59.1836C257.992 60.8945 257.582 61.75 256.73 61.75C256.418 61.75 256.145 61.6484 255.91 61.4453C255.684 61.2422 255.57 60.9883 255.57 60.6836C255.57 60.3867 255.582 59.9414 255.605 59.3477C255.629 58.7539 255.641 58.3086 255.641 58.0117L255.406 51.168C254.836 51.1445 253.969 51.0781 252.805 50.9688C252.109 50.875 251.762 50.4883 251.762 49.8086C251.762 49.4648 251.867 49.1797 252.078 48.9531C252.289 48.7266 252.559 48.6133 252.887 48.6133L255.348 48.8125C255.348 48.4141 255.328 47.8828 255.289 47.2188C255.258 46.5469 255.242 46.0625 255.242 45.7656C255.242 45.4375 255.355 45.168 255.582 44.957C255.809 44.7383 256.086 44.6289 256.414 44.6289C257.117 44.6289 257.527 45.2031 257.645 46.3516C257.668 46.6406 257.68 46.9883 257.68 47.3945L257.656 48.0742L257.645 48.8008C258.613 48.6758 259.168 48.6133 259.309 48.6133C260.121 48.6133 260.652 48.6523 260.902 48.7305C261.379 48.8867 261.617 49.2539 261.617 49.832C261.617 50.1758 261.508 50.4609 261.289 50.6875C261.078 50.9062 260.805 51.0156 260.469 51.0156ZM273.066 52.3398C273.012 53.3164 272.621 53.8047 271.895 53.8047C271.223 53.8047 270.887 53.418 270.887 52.6445C270.887 52.4961 270.875 52.2227 270.852 51.8242L270.816 50.8398C269.582 50.9883 268.594 51.3359 267.852 51.8828C267.156 52.3906 266.578 53.1562 266.117 54.1797L266.141 60.6016C266.141 61.3906 265.754 61.7852 264.98 61.7852C264.293 61.7852 263.949 61.3906 263.949 60.6016V52.375C263.949 52.1172 263.957 51.7305 263.973 51.2148C263.996 50.6992 264.008 50.3125 264.008 50.0547C264.008 49.2656 264.352 48.8711 265.039 48.8711C265.805 48.8711 266.191 49.5195 266.199 50.8164C267.699 49.3711 269.363 48.6484 271.191 48.6484C271.824 48.6484 272.297 48.8867 272.609 49.3633C272.922 49.8398 273.078 50.5586 273.078 51.5195C273.078 51.9258 273.074 52.1992 273.066 52.3398ZM285.699 50.5469L281.645 59.3125C280.645 61.4453 279.879 63.2305 279.348 64.668L278.574 66.9414C278.371 67.5039 278.02 67.7852 277.52 67.7852C277.191 67.7852 276.906 67.6758 276.664 67.457C276.43 67.2461 276.312 66.9805 276.312 66.6602C276.312 65.8789 277.156 63.6172 278.844 59.875L274.648 51.8008L274.121 50.9453C273.91 50.5859 273.805 50.2852 273.805 50.043C273.805 49.7227 273.926 49.4414 274.168 49.1992C274.418 48.957 274.695 48.8359 275 48.8359C275.359 48.8359 275.637 48.9727 275.832 49.2461C277.16 51.0898 278.586 53.7148 280.109 57.1211L281.844 53.0781C282.469 51.6797 283.07 50.4766 283.648 49.4688C283.898 49.0312 284.227 48.8125 284.633 48.8125C284.953 48.8125 285.234 48.9258 285.477 49.1523C285.727 49.3789 285.852 49.6484 285.852 49.9609C285.852 50.1328 285.801 50.3281 285.699 50.5469ZM300.992 61.3516C300.273 61.3516 299.648 60.4297 299.117 58.5859C298.914 57.8828 298.66 56.6523 298.355 54.8945C297.559 55.0039 296.516 55.1992 295.227 55.4805L292.109 56.125C291.719 57.1484 291.051 58.6445 290.105 60.6133C289.855 61.0508 289.516 61.2695 289.086 61.2695C288.773 61.2695 288.492 61.1562 288.242 60.9297C288 60.7031 287.879 60.4219 287.879 60.0859C287.879 59.7109 288.469 58.2852 289.648 55.8086C289.516 55.6055 289.449 55.3711 289.449 55.1055C289.449 54.4727 289.832 54.0664 290.598 53.8867C291.488 52.2148 292.613 50.293 293.973 48.1211C295.824 45.1602 296.977 43.6797 297.43 43.6797C298.047 43.6797 298.469 44.1094 298.695 44.9688L299.434 48.9062L301.18 57.0508L301.848 58.9023C302.074 59.5352 302.188 59.957 302.188 60.168C302.188 60.5039 302.066 60.7852 301.824 61.0117C301.582 61.2383 301.305 61.3516 300.992 61.3516ZM296.855 47.957L293.504 53.3594C294.449 53.1172 295.883 52.8242 297.805 52.4805L296.855 47.957ZM315.172 55.9492L314.902 59.8867C314.855 61.4492 314.695 62.7266 314.422 63.7188C314.07 64.9844 313.508 65.918 312.734 66.5195C311.797 67.2461 310.441 67.6094 308.668 67.6094C307.629 67.6094 306.758 67.5391 306.055 67.3984C305.07 67.2031 304.578 66.7969 304.578 66.1797C304.578 65.4844 304.918 65.1367 305.598 65.1367C305.879 65.1367 306.348 65.2031 307.004 65.3359C307.66 65.4766 308.387 65.5391 309.184 65.5234C310.684 65.5 311.719 64.7734 312.289 63.3438C312.664 62.3906 312.863 60.9258 312.887 58.9492C312.465 59.7305 311.961 60.3164 311.375 60.707C310.797 61.0977 310.133 61.293 309.383 61.293C307.969 61.293 306.816 60.8125 305.926 59.8516C305.043 58.8828 304.602 57.6289 304.602 56.0898C304.602 53.9805 305.207 52.2812 306.418 50.9922C307.668 49.6641 309.371 49 311.527 49C312.254 49 312.863 49.0938 313.355 49.2812C313.848 49.4688 314.223 49.75 314.48 50.125C315.316 50.1484 315.734 50.6133 315.734 51.5195C315.734 52.0742 315.652 52.8164 315.488 53.7461C315.309 54.8242 315.203 55.5586 315.172 55.9492ZM311.41 50.875C309.926 50.875 308.777 51.3867 307.965 52.4102C307.238 53.332 306.875 54.5039 306.875 55.9258C306.875 57.0586 307.09 57.9102 307.52 58.4805C307.949 59.0508 308.594 59.3359 309.453 59.3359C310.242 59.3359 311.008 58.8906 311.75 58C312.422 57.1797 312.805 56.3672 312.898 55.5625C313.062 54.7188 313.238 53.3945 313.426 51.5898C313.113 51.3477 312.789 51.168 312.453 51.0508C312.117 50.9336 311.77 50.875 311.41 50.875ZM327.43 61.7734C327.281 61.7734 327.012 61.6016 326.621 61.2578C326.27 60.9375 326.008 60.6523 325.836 60.4023C325.086 60.8086 324.426 61.1133 323.855 61.3164C323.285 61.5273 322.809 61.6328 322.426 61.6328C320.598 61.6328 319.266 61.1172 318.43 60.0859C317.641 59.1172 317.246 57.6328 317.246 55.6328C317.246 53.7422 317.895 52.125 319.191 50.7812C320.496 49.4375 322.051 48.7656 323.855 48.7656C324.535 48.7656 325.297 48.9414 326.141 49.293C327.203 49.7305 327.734 50.2578 327.734 50.875C327.734 51.0859 327.656 51.2734 327.5 51.4375C327.422 51.7344 327.359 52.2227 327.312 52.9023C327.273 53.582 327.25 54.4531 327.242 55.5156C327.234 56.4844 327.301 57.25 327.441 57.8125C327.52 58.1562 327.766 58.8438 328.18 59.875C328.234 60.0156 328.324 60.2227 328.449 60.4961L328.52 60.6953C328.52 61.0078 328.41 61.2656 328.191 61.4688C327.973 61.6719 327.719 61.7734 327.43 61.7734ZM324.992 53.6289C324.992 53.293 325.012 52.9297 325.051 52.5391C325.098 52.1406 325.164 51.7188 325.25 51.2734C324.961 51.125 324.711 51.0156 324.5 50.9453C324.297 50.875 324.133 50.8398 324.008 50.8398C322.797 50.8398 321.75 51.3359 320.867 52.3281C319.992 53.3125 319.555 54.4492 319.555 55.7383C319.555 57.0195 319.781 57.9805 320.234 58.6211C320.688 59.2617 321.367 59.582 322.273 59.582C323.023 59.582 323.66 59.4453 324.184 59.1719C324.465 59.0234 324.859 58.7266 325.367 58.2812C325.117 56.2109 324.992 54.6602 324.992 53.6289ZM332.797 46.1641C332.422 46.1641 332.098 46.0312 331.824 45.7656C331.551 45.5 331.414 45.1797 331.414 44.8047C331.414 44.4297 331.551 44.1094 331.824 43.8438C332.098 43.5781 332.422 43.4453 332.797 43.4453C333.172 43.4453 333.492 43.5781 333.758 43.8438C334.031 44.1094 334.168 44.4297 334.168 44.8047C334.168 45.1797 334.031 45.5 333.758 45.7656C333.492 46.0312 333.172 46.1641 332.797 46.1641ZM333.324 55.6797C333.324 56.1484 333.336 56.8516 333.359 57.7891C333.391 58.7188 333.406 59.418 333.406 59.8867C333.406 60.2305 333.301 60.5117 333.09 60.7305C332.879 60.9492 332.602 61.0586 332.258 61.0586C331.922 61.0586 331.645 60.9492 331.426 60.7305C331.215 60.5117 331.109 60.2305 331.109 59.8867C331.109 59.418 331.094 58.7188 331.062 57.7891C331.039 56.8516 331.027 56.1484 331.027 55.6797C331.027 54.9453 331.066 54.0312 331.145 52.9375C331.223 51.8359 331.262 50.918 331.262 50.1836C331.262 49.832 331.367 49.5469 331.578 49.3281C331.797 49.1094 332.074 49 332.41 49C332.746 49 333.02 49.1094 333.23 49.3281C333.449 49.5469 333.559 49.832 333.559 50.1836C333.559 50.918 333.52 51.8359 333.441 52.9375C333.363 54.0312 333.324 54.9453 333.324 55.6797ZM346.273 61.832C345.602 61.832 345.223 61.4648 345.137 60.7305L344.809 58.1641C344.699 57.25 344.645 56.3945 344.645 55.5977C344.645 55.3789 344.656 55.0078 344.68 54.4844C344.711 53.9609 344.727 53.5898 344.727 53.3711C344.727 51.6836 344.414 50.8398 343.789 50.8398C342.914 50.8398 342.078 51.3594 341.281 52.3984C340.562 53.3438 340 54.5391 339.594 55.9844C339.578 56.2891 339.543 56.6719 339.488 57.1328C339.441 57.5234 339.418 57.9023 339.418 58.2695C339.418 58.5039 339.441 58.8555 339.488 59.3242C339.535 59.793 339.559 60.1445 339.559 60.3789C339.559 60.7305 339.449 61.0156 339.23 61.2344C339.02 61.4531 338.746 61.5625 338.41 61.5625C338.066 61.5625 337.789 61.4531 337.578 61.2344C337.367 61.0156 337.262 60.7305 337.262 60.3789C337.262 60.1445 337.234 59.793 337.18 59.3242C337.133 58.8555 337.109 58.5039 337.109 58.2695C337.109 57.4648 337.164 56.3516 337.273 54.9297C337.391 53.5 337.449 52.3828 337.449 51.5781C337.449 51.3281 337.434 50.957 337.402 50.4648C337.379 49.9727 337.367 49.6016 337.367 49.3516C337.367 49.0156 337.477 48.7422 337.695 48.5312C337.922 48.3125 338.199 48.2031 338.527 48.2031C339.246 48.2031 339.641 48.7109 339.711 49.7266L339.746 51.0977C341.059 49.3477 342.406 48.4727 343.789 48.4727C345.039 48.4727 345.91 49.0234 346.402 50.125C346.738 50.8594 346.922 51.9453 346.953 53.3828V54.5664L346.941 55.6562C346.941 56.3047 347.023 57.1445 347.188 58.1758C347.359 59.1992 347.445 60.0312 347.445 60.6719C347.445 61.0156 347.332 61.293 347.105 61.5039C346.887 61.7227 346.609 61.832 346.273 61.832Z" fill="#2684FF"/>
<path d="M356.375 43.2695C356.375 43.543 356.133 43.9414 355.648 44.4648C355.289 44.8242 354.934 45.1836 354.582 45.543C353.715 46.5273 353.035 47.9336 352.543 49.7617C352.113 51.3555 351.898 52.9219 351.898 54.4609C351.898 58.4297 352.797 61.3398 354.594 63.1914C354.953 63.4727 355.316 63.7539 355.684 64.0352C356.137 64.3945 356.363 64.75 356.363 65.1016C356.363 65.3594 356.262 65.582 356.059 65.7695C355.855 65.9648 355.621 66.0625 355.355 66.0625C355.121 66.0625 354.84 65.9727 354.512 65.793C351.207 63.9414 349.555 60.0742 349.555 54.1914C349.555 52.0742 349.98 49.9297 350.832 47.7578C351.785 45.3438 353.035 43.5938 354.582 42.5078C354.895 42.2891 355.141 42.1797 355.32 42.1797C355.602 42.1797 355.848 42.293 356.059 42.5195C356.27 42.7383 356.375 42.9883 356.375 43.2695ZM365.164 54.1914C365.164 60.0742 363.508 63.9414 360.195 65.793C359.875 65.9727 359.598 66.0625 359.363 66.0625C359.098 66.0625 358.863 65.9648 358.66 65.7695C358.457 65.582 358.355 65.3594 358.355 65.1016C358.355 64.75 358.582 64.3945 359.035 64.0352C359.395 63.7539 359.758 63.4727 360.125 63.1914C361.922 61.3398 362.82 58.4297 362.82 54.4609C362.82 52.9219 362.605 51.3555 362.176 49.7617C361.676 47.9336 360.996 46.5273 360.137 45.543C359.777 45.1836 359.422 44.8242 359.07 44.4648C358.586 43.9414 358.344 43.543 358.344 43.2695C358.344 42.9883 358.445 42.7383 358.648 42.5195C358.859 42.293 359.105 42.1797 359.387 42.1797C359.566 42.1797 359.816 42.2891 360.137 42.5078C361.684 43.5938 362.934 45.3438 363.887 47.7578C364.738 49.9297 365.164 52.0742 365.164 54.1914Z" fill="black"/>
</g>
</g>
<path id="Vector 25" d="M60.5 276L55.5 233L128 230.5L135 277L60.5 276Z" fill="white" stroke="black"/>
</g>
</svg>
